<?xml version="1.0" encoding="utf-8" standalone="no"?>
<!DOCTYPE svg PUBLIC "-//W3C//DTD SVG 1.1//EN"
  "http://www.w3.org/Graphics/SVG/1.1/DTD/svg11.dtd">
<svg xmlns:xlink="http://www.w3.org/1999/xlink" width="460.8pt" height="345.6pt" viewBox="0 0 460.8 345.6" xmlns="http://www.w3.org/2000/svg" version="1.1">
 <metadata>
  <rdf:RDF xmlns:dc="http://purl.org/dc/elements/1.1/" xmlns:cc="http://creativecommons.org/ns#" xmlns:rdf="http://www.w3.org/1999/02/22-rdf-syntax-ns#">
   <cc:Work>
    <dc:type rdf:resource="http://purl.org/dc/dcmitype/StillImage"/>
    <dc:date>2024-01-18T18:10:41.799212</dc:date>
    <dc:format>image/svg+xml</dc:format>
    <dc:creator>
     <cc:Agent>
      <dc:title>Matplotlib v3.8.2, https://matplotlib.org/</dc:title>
     </cc:Agent>
    </dc:creator>
   </cc:Work>
  </rdf:RDF>
 </metadata>
 <defs>
  <style type="text/css">*{stroke-linejoin: round; stroke-linecap: butt}</style>
 </defs>
 <g id="figure_1">
  <g id="patch_1">
   <path d="M 0 345.6
L 460.8 345.6
L 460.8 0
L 0 0
z
" style="fill: #ffffff"/>
  </g>
  <g id="axes_1">
   <g id="patch_2">
    <path d="M 38.27 303.64
L 437.185227 303.64
L 437.185227 10.8
L 38.27 10.8
z
" style="fill: #ffffff"/>
   </g>
   <g id="PolyCollection_1">
    <defs>
     <path id="mbd8e3beb5c" d="M 56.40251 -215.001818
L 56.40251 -55.270909
L 60.065644 -55.270909
L 63.728777 -55.270909
L 67.391911 -55.270909
L 71.055044 -55.270909
L 74.718177 -55.270909
L 78.381311 -55.270909
L 82.044444 -55.270909
L 85.707578 -55.270909
L 89.370711 -55.270909
L 93.033844 -55.270909
L 96.696978 -55.270909
L 100.360111 -55.270909
L 104.023245 -55.270909
L 107.686378 -55.270909
L 111.349511 -55.270909
L 115.012645 -55.270909
L 118.675778 -55.270909
L 122.338912 -55.270909
L 126.002045 -55.270909
L 129.665178 -55.270909
L 133.328312 -55.270909
L 136.991445 -55.270909
L 140.654579 -55.270909
L 144.317712 -55.270909
L 147.980845 -55.270909
L 151.643979 -55.270909
L 155.307112 -55.270909
L 158.970246 -55.270909
L 162.633379 -55.270909
L 166.296512 -55.270909
L 169.959646 -55.270909
L 173.622779 -55.270909
L 177.285913 -55.270909
L 180.949046 -55.558336
L 184.612179 -56.396912
L 188.275313 -57.751078
L 191.938446 -59.585278
L 195.60158 -61.863952
L 199.264713 -64.551543
L 202.927846 -67.612493
L 206.59098 -71.011243
L 210.254113 -74.712237
L 213.917247 -78.679915
L 217.58038 -82.878721
L 221.243513 -87.273095
L 224.906647 -91.82748
L 228.56978 -96.506318
L 232.232914 -101.274051
L 235.896047 -106.095121
L 239.55918 -110.93397
L 243.222314 -115.75504
L 246.885447 -120.522773
L 250.548581 -125.201611
L 254.211714 -129.755996
L 257.874847 -134.15037
L 261.537981 -138.349176
L 265.201114 -142.316854
L 268.864248 -146.017848
L 272.527381 -149.416598
L 276.190514 -152.477548
L 279.853648 -155.165139
L 283.516781 -157.443813
L 287.179915 -159.278012
L 290.843048 -160.632179
L 294.506181 -161.470755
L 298.169315 -161.758182
L 301.832448 -161.660397
L 305.495582 -161.367044
L 309.158715 -160.878122
L 312.821848 -160.193631
L 316.484982 -159.31357
L 320.148115 -158.237941
L 323.811249 -156.966743
L 327.474382 -155.499977
L 331.137515 -153.837641
L 334.800649 -151.979736
L 338.463782 -149.926263
L 342.126916 -147.67722
L 345.790049 -145.232609
L 349.453182 -142.592428
L 353.116316 -139.756679
L 356.779449 -136.725361
L 360.442583 -133.498474
L 364.105716 -130.076018
L 367.768849 -126.457993
L 371.431983 -122.644399
L 375.095116 -118.635237
L 378.75825 -114.430505
L 382.421383 -110.030205
L 386.084516 -105.434335
L 389.74765 -100.642897
L 393.410783 -95.655889
L 397.073917 -90.473313
L 400.73705 -85.095168
L 404.400183 -79.521454
L 408.063317 -73.752171
L 411.72645 -67.787319
L 415.389584 -61.626899
L 419.052717 -55.270909
L 419.052717 -215.001818
L 419.052717 -215.001818
L 415.389584 -215.001818
L 411.72645 -215.001818
L 408.063317 -215.001818
L 404.400183 -215.001818
L 400.73705 -215.001818
L 397.073917 -215.001818
L 393.410783 -215.001818
L 389.74765 -215.001818
L 386.084516 -215.001818
L 382.421383 -215.001818
L 378.75825 -215.001818
L 375.095116 -215.001818
L 371.431983 -215.001818
L 367.768849 -215.001818
L 364.105716 -215.001818
L 360.442583 -215.001818
L 356.779449 -215.001818
L 353.116316 -215.001818
L 349.453182 -215.001818
L 345.790049 -215.001818
L 342.126916 -215.001818
L 338.463782 -215.001818
L 334.800649 -215.001818
L 331.137515 -215.001818
L 327.474382 -215.001818
L 323.811249 -215.001818
L 320.148115 -215.001818
L 316.484982 -215.001818
L 312.821848 -215.001818
L 309.158715 -215.001818
L 305.495582 -215.001818
L 301.832448 -215.001818
L 298.169315 -215.001818
L 294.506181 -215.001818
L 290.843048 -215.001818
L 287.179915 -215.001818
L 283.516781 -215.001818
L 279.853648 -215.001818
L 276.190514 -215.001818
L 272.527381 -215.001818
L 268.864248 -215.001818
L 265.201114 -215.001818
L 261.537981 -215.001818
L 257.874847 -215.001818
L 254.211714 -215.001818
L 250.548581 -215.001818
L 246.885447 -215.001818
L 243.222314 -215.001818
L 239.55918 -215.001818
L 235.896047 -215.001818
L 232.232914 -215.001818
L 228.56978 -215.001818
L 224.906647 -215.001818
L 221.243513 -215.001818
L 217.58038 -215.001818
L 213.917247 -215.001818
L 210.254113 -215.001818
L 206.59098 -215.001818
L 202.927846 -215.001818
L 199.264713 -215.001818
L 195.60158 -215.001818
L 191.938446 -215.001818
L 188.275313 -215.001818
L 184.612179 -215.001818
L 180.949046 -215.001818
L 177.285913 -215.001818
L 173.622779 -215.001818
L 169.959646 -215.001818
L 166.296512 -215.001818
L 162.633379 -215.001818
L 158.970246 -215.001818
L 155.307112 -215.001818
L 151.643979 -215.001818
L 147.980845 -215.001818
L 144.317712 -215.001818
L 140.654579 -215.001818
L 136.991445 -215.001818
L 133.328312 -215.001818
L 129.665178 -215.001818
L 126.002045 -215.001818
L 122.338912 -215.001818
L 118.675778 -215.001818
L 115.012645 -215.001818
L 111.349511 -215.001818
L 107.686378 -215.001818
L 104.023245 -215.001818
L 100.360111 -215.001818
L 96.696978 -215.001818
L 93.033844 -215.001818
L 89.370711 -215.001818
L 85.707578 -215.001818
L 82.044444 -215.001818
L 78.381311 -215.001818
L 74.718177 -215.001818
L 71.055044 -215.001818
L 67.391911 -215.001818
L 63.728777 -215.001818
L 60.065644 -215.001818
L 56.40251 -215.001818
z
" style="stroke: #0173b2"/>
    </defs>
    <g clip-path="url(#p97145acd8a)">
     <use xlink:href="#mbd8e3beb5c" x="0" y="345.6" style="fill: #0173b2; stroke: #0173b2"/>
    </g>
   </g>
   <g id="PolyCollection_2">
    <defs>
     <path id="m5a9ee3947d" d="M 56.40251 -321.489091
L 56.40251 -215.001818
L 60.065644 -215.001818
L 63.728777 -215.001818
L 67.391911 -215.001818
L 71.055044 -215.001818
L 74.718177 -215.001818
L 78.381311 -215.001818
L 82.044444 -215.001818
L 85.707578 -215.001818
L 89.370711 -215.001818
L 93.033844 -215.001818
L 96.696978 -215.001818
L 100.360111 -215.001818
L 104.023245 -215.001818
L 107.686378 -215.001818
L 111.349511 -215.001818
L 115.012645 -215.001818
L 118.675778 -215.001818
L 122.338912 -215.001818
L 126.002045 -215.001818
L 129.665178 -215.001818
L 133.328312 -215.001818
L 136.991445 -215.001818
L 140.654579 -215.001818
L 144.317712 -215.001818
L 147.980845 -215.001818
L 151.643979 -215.001818
L 155.307112 -215.001818
L 158.970246 -215.001818
L 162.633379 -215.001818
L 166.296512 -215.001818
L 169.959646 -215.001818
L 173.622779 -215.001818
L 177.285913 -215.001818
L 180.949046 -214.570678
L 184.612179 -213.312814
L 188.275313 -211.281564
L 191.938446 -208.530265
L 195.60158 -205.112254
L 199.264713 -201.080867
L 202.927846 -196.489443
L 206.59098 -191.391317
L 210.254113 -185.839827
L 213.917247 -179.888309
L 217.58038 -173.590101
L 221.243513 -166.99854
L 224.906647 -160.166962
L 228.56978 -153.148705
L 232.232914 -145.997105
L 235.896047 -138.7655
L 239.55918 -131.507227
L 243.222314 -124.275622
L 246.885447 -117.124022
L 250.548581 -110.105765
L 254.211714 -103.274188
L 257.874847 -96.682626
L 261.537981 -90.384418
L 265.201114 -84.432901
L 268.864248 -78.88141
L 272.527381 -73.783285
L 276.190514 -69.19186
L 279.853648 -65.160473
L 283.516781 -61.742462
L 287.179915 -58.991163
L 290.843048 -56.959913
L 294.506181 -55.70205
L 298.169315 -55.270909
L 301.832448 -55.417586
L 305.495582 -55.857616
L 309.158715 -56.590999
L 312.821848 -57.617736
L 316.484982 -58.937826
L 320.148115 -60.55127
L 323.811249 -62.458067
L 327.474382 -64.658217
L 331.137515 -67.151721
L 334.800649 -69.938578
L 338.463782 -73.018788
L 342.126916 -76.392352
L 345.790049 -80.059269
L 349.453182 -84.019539
L 353.116316 -88.273163
L 356.779449 -92.82014
L 360.442583 -97.660471
L 364.105716 -102.794155
L 367.768849 -108.221192
L 371.431983 -113.941583
L 375.095116 -119.955327
L 378.75825 -126.262424
L 382.421383 -132.862875
L 386.084516 -139.756679
L 389.74765 -146.943837
L 393.410783 -154.424348
L 397.073917 -162.198212
L 400.73705 -170.26543
L 404.400183 -178.626001
L 408.063317 -187.279925
L 411.72645 -196.227203
L 415.389584 -205.467834
L 419.052717 -215.001818
L 419.052717 -321.489091
L 419.052717 -321.489091
L 415.389584 -311.955106
L 411.72645 -302.714475
L 408.063317 -293.767198
L 404.400183 -285.113273
L 400.73705 -276.752702
L 397.073917 -268.685485
L 393.410783 -260.91162
L 389.74765 -253.431109
L 386.084516 -246.243952
L 382.421383 -239.350148
L 378.75825 -232.749697
L 375.095116 -226.4426
L 371.431983 -220.428855
L 367.768849 -214.708465
L 364.105716 -209.281427
L 360.442583 -204.147744
L 356.779449 -199.307413
L 353.116316 -194.760436
L 349.453182 -190.506812
L 345.790049 -186.546541
L 342.126916 -182.879624
L 338.463782 -179.506061
L 334.800649 -176.42585
L 331.137515 -173.638993
L 327.474382 -171.14549
L 323.811249 -168.945339
L 320.148115 -167.038542
L 316.484982 -165.425099
L 312.821848 -164.105009
L 309.158715 -163.078272
L 305.495582 -162.344889
L 301.832448 -161.904859
L 298.169315 -161.758182
L 294.506181 -162.189322
L 290.843048 -163.447186
L 287.179915 -165.478436
L 283.516781 -168.229735
L 279.853648 -171.647746
L 276.190514 -175.679133
L 272.527381 -180.270557
L 268.864248 -185.368683
L 265.201114 -190.920173
L 261.537981 -196.871691
L 257.874847 -203.169899
L 254.211714 -209.76146
L 250.548581 -216.593038
L 246.885447 -223.611295
L 243.222314 -230.762895
L 239.55918 -237.9945
L 235.896047 -245.252773
L 232.232914 -252.484378
L 228.56978 -259.635978
L 224.906647 -266.654235
L 221.243513 -273.485812
L 217.58038 -280.077374
L 213.917247 -286.375582
L 210.254113 -292.327099
L 206.59098 -297.87859
L 202.927846 -302.976715
L 199.264713 -307.56814
L 195.60158 -311.599527
L 191.938446 -315.017538
L 188.275313 -317.768837
L 184.612179 -319.800087
L 180.949046 -321.05795
L 177.285913 -321.489091
L 173.622779 -321.489091
L 169.959646 -321.489091
L 166.296512 -321.489091
L 162.633379 -321.489091
L 158.970246 -321.489091
L 155.307112 -321.489091
L 151.643979 -321.489091
L 147.980845 -321.489091
L 144.317712 -321.489091
L 140.654579 -321.489091
L 136.991445 -321.489091
L 133.328312 -321.489091
L 129.665178 -321.489091
L 126.002045 -321.489091
L 122.338912 -321.489091
L 118.675778 -321.489091
L 115.012645 -321.489091
L 111.349511 -321.489091
L 107.686378 -321.489091
L 104.023245 -321.489091
L 100.360111 -321.489091
L 96.696978 -321.489091
L 93.033844 -321.489091
L 89.370711 -321.489091
L 85.707578 -321.489091
L 82.044444 -321.489091
L 78.381311 -321.489091
L 74.718177 -321.489091
L 71.055044 -321.489091
L 67.391911 -321.489091
L 63.728777 -321.489091
L 60.065644 -321.489091
L 56.40251 -321.489091
z
" style="stroke: #de8f05"/>
    </defs>
    <g clip-path="url(#p97145acd8a)">
     <use xlink:href="#m5a9ee3947d" x="0" y="345.6" style="fill: #de8f05; stroke: #de8f05"/>
    </g>
   </g>
   <g id="matplotlib.axis_1">
    <g id="xtick_1">
     <g id="line2d_1">
      <defs>
       <path id="m00c86ca638" d="M 0 0
L 0 3.5
" style="stroke: #000000; stroke-width: 0.8"/>
      </defs>
      <g>
       <use xlink:href="#m00c86ca638" x="56.40251" y="303.64" style="stroke: #000000; stroke-width: 0.8"/>
      </g>
     </g>
     <g id="text_1">
      <!-- 2022-01-01 -->
      <g transform="translate(27.344698 318.238437) scale(0.1 -0.1)">
       <defs>
        <path id="DejaVuSans-32" d="M 1228 531
L 3431 531
L 3431 0
L 469 0
L 469 531
Q 828 903 1448 1529
Q 2069 2156 2228 2338
Q 2531 2678 2651 2914
Q 2772 3150 2772 3378
Q 2772 3750 2511 3984
Q 2250 4219 1831 4219
Q 1534 4219 1204 4116
Q 875 4013 500 3803
L 500 4441
Q 881 4594 1212 4672
Q 1544 4750 1819 4750
Q 2544 4750 2975 4387
Q 3406 4025 3406 3419
Q 3406 3131 3298 2873
Q 3191 2616 2906 2266
Q 2828 2175 2409 1742
Q 1991 1309 1228 531
z
" transform="scale(0.015625)"/>
        <path id="DejaVuSans-30" d="M 2034 4250
Q 1547 4250 1301 3770
Q 1056 3291 1056 2328
Q 1056 1369 1301 889
Q 1547 409 2034 409
Q 2525 409 2770 889
Q 3016 1369 3016 2328
Q 3016 3291 2770 3770
Q 2525 4250 2034 4250
z
M 2034 4750
Q 2819 4750 3233 4129
Q 3647 3509 3647 2328
Q 3647 1150 3233 529
Q 2819 -91 2034 -91
Q 1250 -91 836 529
Q 422 1150 422 2328
Q 422 3509 836 4129
Q 1250 4750 2034 4750
z
" transform="scale(0.015625)"/>
        <path id="DejaVuSans-2d" d="M 313 2009
L 1997 2009
L 1997 1497
L 313 1497
L 313 2009
z
" transform="scale(0.015625)"/>
        <path id="DejaVuSans-31" d="M 794 531
L 1825 531
L 1825 4091
L 703 3866
L 703 4441
L 1819 4666
L 2450 4666
L 2450 531
L 3481 531
L 3481 0
L 794 0
L 794 531
z
" transform="scale(0.015625)"/>
       </defs>
       <use xlink:href="#DejaVuSans-32"/>
       <use xlink:href="#DejaVuSans-30" x="63.623047"/>
       <use xlink:href="#DejaVuSans-32" x="127.246094"/>
       <use xlink:href="#DejaVuSans-32" x="190.869141"/>
       <use xlink:href="#DejaVuSans-2d" x="254.492188"/>
       <use xlink:href="#DejaVuSans-30" x="290.576172"/>
       <use xlink:href="#DejaVuSans-31" x="354.199219"/>
       <use xlink:href="#DejaVuSans-2d" x="417.822266"/>
       <use xlink:href="#DejaVuSans-30" x="453.90625"/>
       <use xlink:href="#DejaVuSans-31" x="517.529297"/>
      </g>
     </g>
    </g>
    <g id="xtick_2">
     <g id="line2d_2">
      <g>
       <use xlink:href="#m00c86ca638" x="177.285913" y="303.64" style="stroke: #000000; stroke-width: 0.8"/>
      </g>
     </g>
     <g id="text_2">
      <!-- 2022-01-02 -->
      <g transform="translate(148.2281 318.238437) scale(0.1 -0.1)">
       <use xlink:href="#DejaVuSans-32"/>
       <use xlink:href="#DejaVuSans-30" x="63.623047"/>
       <use xlink:href="#DejaVuSans-32" x="127.246094"/>
       <use xlink:href="#DejaVuSans-32" x="190.869141"/>
       <use xlink:href="#DejaVuSans-2d" x="254.492188"/>
       <use xlink:href="#DejaVuSans-30" x="290.576172"/>
       <use xlink:href="#DejaVuSans-31" x="354.199219"/>
       <use xlink:href="#DejaVuSans-2d" x="417.822266"/>
       <use xlink:href="#DejaVuSans-30" x="453.90625"/>
       <use xlink:href="#DejaVuSans-32" x="517.529297"/>
      </g>
     </g>
    </g>
    <g id="xtick_3">
     <g id="line2d_3">
      <g>
       <use xlink:href="#m00c86ca638" x="298.169315" y="303.64" style="stroke: #000000; stroke-width: 0.8"/>
      </g>
     </g>
     <g id="text_3">
      <!-- 2022-01-03 -->
      <g transform="translate(269.111502 318.238437) scale(0.1 -0.1)">
       <defs>
        <path id="DejaVuSans-33" d="M 2597 2516
Q 3050 2419 3304 2112
Q 3559 1806 3559 1356
Q 3559 666 3084 287
Q 2609 -91 1734 -91
Q 1441 -91 1130 -33
Q 819 25 488 141
L 488 750
Q 750 597 1062 519
Q 1375 441 1716 441
Q 2309 441 2620 675
Q 2931 909 2931 1356
Q 2931 1769 2642 2001
Q 2353 2234 1838 2234
L 1294 2234
L 1294 2753
L 1863 2753
Q 2328 2753 2575 2939
Q 2822 3125 2822 3475
Q 2822 3834 2567 4026
Q 2313 4219 1838 4219
Q 1578 4219 1281 4162
Q 984 4106 628 3988
L 628 4550
Q 988 4650 1302 4700
Q 1616 4750 1894 4750
Q 2613 4750 3031 4423
Q 3450 4097 3450 3541
Q 3450 3153 3228 2886
Q 3006 2619 2597 2516
z
" transform="scale(0.015625)"/>
       </defs>
       <use xlink:href="#DejaVuSans-32"/>
       <use xlink:href="#DejaVuSans-30" x="63.623047"/>
       <use xlink:href="#DejaVuSans-32" x="127.246094"/>
       <use xlink:href="#DejaVuSans-32" x="190.869141"/>
       <use xlink:href="#DejaVuSans-2d" x="254.492188"/>
       <use xlink:href="#DejaVuSans-30" x="290.576172"/>
       <use xlink:href="#DejaVuSans-31" x="354.199219"/>
       <use xlink:href="#DejaVuSans-2d" x="417.822266"/>
       <use xlink:href="#DejaVuSans-30" x="453.90625"/>
       <use xlink:href="#DejaVuSans-33" x="517.529297"/>
      </g>
     </g>
    </g>
    <g id="xtick_4">
     <g id="line2d_4">
      <g>
       <use xlink:href="#m00c86ca638" x="419.052717" y="303.64" style="stroke: #000000; stroke-width: 0.8"/>
      </g>
     </g>
     <g id="text_4">
      <!-- 2022-01-04 -->
      <g transform="translate(389.994904 318.238437) scale(0.1 -0.1)">
       <defs>
        <path id="DejaVuSans-34" d="M 2419 4116
L 825 1625
L 2419 1625
L 2419 4116
z
M 2253 4666
L 3047 4666
L 3047 1625
L 3713 1625
L 3713 1100
L 3047 1100
L 3047 0
L 2419 0
L 2419 1100
L 313 1100
L 313 1709
L 2253 4666
z
" transform="scale(0.015625)"/>
       </defs>
       <use xlink:href="#DejaVuSans-32"/>
       <use xlink:href="#DejaVuSans-30" x="63.623047"/>
       <use xlink:href="#DejaVuSans-32" x="127.246094"/>
       <use xlink:href="#DejaVuSans-32" x="190.869141"/>
       <use xlink:href="#DejaVuSans-2d" x="254.492188"/>
       <use xlink:href="#DejaVuSans-30" x="290.576172"/>
       <use xlink:href="#DejaVuSans-31" x="354.199219"/>
       <use xlink:href="#DejaVuSans-2d" x="417.822266"/>
       <use xlink:href="#DejaVuSans-30" x="453.90625"/>
       <use xlink:href="#DejaVuSans-34" x="517.529297"/>
      </g>
     </g>
    </g>
    <g id="text_5">
     <!-- my_x -->
     <g transform="translate(224.438551 331.638437) scale(0.1 -0.1)">
      <defs>
       <path id="DejaVuSans-6d" d="M 3328 2828
Q 3544 3216 3844 3400
Q 4144 3584 4550 3584
Q 5097 3584 5394 3201
Q 5691 2819 5691 2113
L 5691 0
L 5113 0
L 5113 2094
Q 5113 2597 4934 2840
Q 4756 3084 4391 3084
Q 3944 3084 3684 2787
Q 3425 2491 3425 1978
L 3425 0
L 2847 0
L 2847 2094
Q 2847 2600 2669 2842
Q 2491 3084 2119 3084
Q 1678 3084 1418 2786
Q 1159 2488 1159 1978
L 1159 0
L 581 0
L 581 3500
L 1159 3500
L 1159 2956
Q 1356 3278 1631 3431
Q 1906 3584 2284 3584
Q 2666 3584 2933 3390
Q 3200 3197 3328 2828
z
" transform="scale(0.015625)"/>
       <path id="DejaVuSans-79" d="M 2059 -325
Q 1816 -950 1584 -1140
Q 1353 -1331 966 -1331
L 506 -1331
L 506 -850
L 844 -850
Q 1081 -850 1212 -737
Q 1344 -625 1503 -206
L 1606 56
L 191 3500
L 800 3500
L 1894 763
L 2988 3500
L 3597 3500
L 2059 -325
z
" transform="scale(0.015625)"/>
       <path id="DejaVuSans-5f" d="M 3263 -1063
L 3263 -1509
L -63 -1509
L -63 -1063
L 3263 -1063
z
" transform="scale(0.015625)"/>
       <path id="DejaVuSans-78" d="M 3513 3500
L 2247 1797
L 3578 0
L 2900 0
L 1881 1375
L 863 0
L 184 0
L 1544 1831
L 300 3500
L 978 3500
L 1906 2253
L 2834 3500
L 3513 3500
z
" transform="scale(0.015625)"/>
      </defs>
      <use xlink:href="#DejaVuSans-6d"/>
      <use xlink:href="#DejaVuSans-79" x="97.412109"/>
      <use xlink:href="#DejaVuSans-5f" x="156.591797"/>
      <use xlink:href="#DejaVuSans-78" x="206.591797"/>
     </g>
    </g>
   </g>
   <g id="matplotlib.axis_2">
    <g id="ytick_1">
     <g id="line2d_5">
      <defs>
       <path id="mc183548b2c" d="M 0 0
L -3.5 0
" style="stroke: #000000; stroke-width: 0.8"/>
      </defs>
      <g>
       <use xlink:href="#mc183548b2c" x="38.27" y="290.329091" style="stroke: #000000; stroke-width: 0.8"/>
      </g>
     </g>
     <g id="text_6">
      <!-- 0 -->
      <g transform="translate(24.9075 294.12831) scale(0.1 -0.1)">
       <use xlink:href="#DejaVuSans-30"/>
      </g>
     </g>
    </g>
    <g id="ytick_2">
     <g id="line2d_6">
      <g>
       <use xlink:href="#mc183548b2c" x="38.27" y="237.085455" style="stroke: #000000; stroke-width: 0.8"/>
      </g>
     </g>
     <g id="text_7">
      <!-- 1 -->
      <g transform="translate(24.9075 240.884673) scale(0.1 -0.1)">
       <use xlink:href="#DejaVuSans-31"/>
      </g>
     </g>
    </g>
    <g id="ytick_3">
     <g id="line2d_7">
      <g>
       <use xlink:href="#mc183548b2c" x="38.27" y="183.841818" style="stroke: #000000; stroke-width: 0.8"/>
      </g>
     </g>
     <g id="text_8">
      <!-- 2 -->
      <g transform="translate(24.9075 187.641037) scale(0.1 -0.1)">
       <use xlink:href="#DejaVuSans-32"/>
      </g>
     </g>
    </g>
    <g id="ytick_4">
     <g id="line2d_8">
      <g>
       <use xlink:href="#mc183548b2c" x="38.27" y="130.598182" style="stroke: #000000; stroke-width: 0.8"/>
      </g>
     </g>
     <g id="text_9">
      <!-- 3 -->
      <g transform="translate(24.9075 134.397401) scale(0.1 -0.1)">
       <use xlink:href="#DejaVuSans-33"/>
      </g>
     </g>
    </g>
    <g id="ytick_5">
     <g id="line2d_9">
      <g>
       <use xlink:href="#mc183548b2c" x="38.27" y="77.354545" style="stroke: #000000; stroke-width: 0.8"/>
      </g>
     </g>
     <g id="text_10">
      <!-- 4 -->
      <g transform="translate(24.9075 81.153764) scale(0.1 -0.1)">
       <use xlink:href="#DejaVuSans-34"/>
      </g>
     </g>
    </g>
    <g id="ytick_6">
     <g id="line2d_10">
      <g>
       <use xlink:href="#mc183548b2c" x="38.27" y="24.110909" style="stroke: #000000; stroke-width: 0.8"/>
      </g>
     </g>
     <g id="text_11">
      <!-- 5 -->
      <g transform="translate(24.9075 27.910128) scale(0.1 -0.1)">
       <defs>
        <path id="DejaVuSans-35" d="M 691 4666
L 3169 4666
L 3169 4134
L 1269 4134
L 1269 2991
Q 1406 3038 1543 3061
Q 1681 3084 1819 3084
Q 2600 3084 3056 2656
Q 3513 2228 3513 1497
Q 3513 744 3044 326
Q 2575 -91 1722 -91
Q 1428 -91 1123 -41
Q 819 9 494 109
L 494 744
Q 775 591 1075 516
Q 1375 441 1709 441
Q 2250 441 2565 725
Q 2881 1009 2881 1497
Q 2881 1984 2565 2268
Q 2250 2553 1709 2553
Q 1456 2553 1204 2497
Q 953 2441 691 2322
L 691 4666
z
" transform="scale(0.015625)"/>
       </defs>
       <use xlink:href="#DejaVuSans-35"/>
      </g>
     </g>
    </g>
    <g id="text_12">
     <!-- my_y -->
     <g transform="translate(18.549688 170.509062) rotate(-90) scale(0.1 -0.1)">
      <use xlink:href="#DejaVuSans-6d"/>
      <use xlink:href="#DejaVuSans-79" x="97.412109"/>
      <use xlink:href="#DejaVuSans-5f" x="156.591797"/>
      <use xlink:href="#DejaVuSans-79" x="206.591797"/>
     </g>
    </g>
   </g>
   <g id="patch_3">
    <path d="M 38.27 303.64
L 38.27 10.8
" style="fill: none; stroke: #000000; stroke-width: 0.8; stroke-linejoin: miter; stroke-linecap: square"/>
   </g>
   <g id="patch_4">
    <path d="M 437.185227 303.64
L 437.185227 10.8
" style="fill: none; stroke: #000000; stroke-width: 0.8; stroke-linejoin: miter; stroke-linecap: square"/>
   </g>
   <g id="patch_5">
    <path d="M 38.27 303.64
L 437.185227 303.64
" style="fill: none; stroke: #000000; stroke-width: 0.8; stroke-linejoin: miter; stroke-linecap: square"/>
   </g>
   <g id="patch_6">
    <path d="M 38.27 10.8
L 437.185227 10.8
" style="fill: none; stroke: #000000; stroke-width: 0.8; stroke-linejoin: miter; stroke-linecap: square"/>
   </g>
   <g id="legend_1">
    <g id="patch_7">
     <path d="M 391.83679 48.15625
L 430.185227 48.15625
Q 432.185227 48.15625 432.185227 46.15625
L 432.185227 17.8
Q 432.185227 15.8 430.185227 15.8
L 391.83679 15.8
Q 389.83679 15.8 389.83679 17.8
L 389.83679 46.15625
Q 389.83679 48.15625 391.83679 48.15625
z
" style="fill: #ffffff; opacity: 0.8; stroke: #cccccc; stroke-linejoin: miter"/>
    </g>
    <g id="patch_8">
     <path d="M 393.83679 27.398438
L 413.83679 27.398438
L 413.83679 20.398438
L 393.83679 20.398438
z
" style="fill: #0173b2; stroke: #0173b2; stroke-linejoin: miter"/>
    </g>
    <g id="text_13">
     <!-- a -->
     <g transform="translate(421.83679 27.398438) scale(0.1 -0.1)">
      <defs>
       <path id="DejaVuSans-61" d="M 2194 1759
Q 1497 1759 1228 1600
Q 959 1441 959 1056
Q 959 750 1161 570
Q 1363 391 1709 391
Q 2188 391 2477 730
Q 2766 1069 2766 1631
L 2766 1759
L 2194 1759
z
M 3341 1997
L 3341 0
L 2766 0
L 2766 531
Q 2569 213 2275 61
Q 1981 -91 1556 -91
Q 1019 -91 701 211
Q 384 513 384 1019
Q 384 1609 779 1909
Q 1175 2209 1959 2209
L 2766 2209
L 2766 2266
Q 2766 2663 2505 2880
Q 2244 3097 1772 3097
Q 1472 3097 1187 3025
Q 903 2953 641 2809
L 641 3341
Q 956 3463 1253 3523
Q 1550 3584 1831 3584
Q 2591 3584 2966 3190
Q 3341 2797 3341 1997
z
" transform="scale(0.015625)"/>
      </defs>
      <use xlink:href="#DejaVuSans-61"/>
     </g>
    </g>
    <g id="patch_9">
     <path d="M 393.83679 42.076563
L 413.83679 42.076563
L 413.83679 35.076563
L 393.83679 35.076563
z
" style="fill: #de8f05; stroke: #de8f05; stroke-linejoin: miter"/>
    </g>
    <g id="text_14">
     <!-- b -->
     <g transform="translate(421.83679 42.076563) scale(0.1 -0.1)">
      <defs>
       <path id="DejaVuSans-62" d="M 3116 1747
Q 3116 2381 2855 2742
Q 2594 3103 2138 3103
Q 1681 3103 1420 2742
Q 1159 2381 1159 1747
Q 1159 1113 1420 752
Q 1681 391 2138 391
Q 2594 391 2855 752
Q 3116 1113 3116 1747
z
M 1159 2969
Q 1341 3281 1617 3432
Q 1894 3584 2278 3584
Q 2916 3584 3314 3078
Q 3713 2572 3713 1747
Q 3713 922 3314 415
Q 2916 -91 2278 -91
Q 1894 -91 1617 61
Q 1341 213 1159 525
L 1159 0
L 581 0
L 581 4863
L 1159 4863
L 1159 2969
z
" transform="scale(0.015625)"/>
      </defs>
      <use xlink:href="#DejaVuSans-62"/>
     </g>
    </g>
   </g>
  </g>
 </g>
 <defs>
  <clipPath id="p97145acd8a">
   <rect x="38.27" y="10.8" width="398.915227" height="292.84"/>
  </clipPath>
 </defs>
</svg>
