<?xml version="1.0" encoding="utf-8" standalone="no"?>
<!DOCTYPE svg PUBLIC "-//W3C//DTD SVG 1.1//EN"
  "http://www.w3.org/Graphics/SVG/1.1/DTD/svg11.dtd">
<svg xmlns:xlink="http://www.w3.org/1999/xlink" width="460.8pt" height="345.6pt" viewBox="0 0 460.8 345.6" xmlns="http://www.w3.org/2000/svg" version="1.1">
 <metadata>
  <rdf:RDF xmlns:dc="http://purl.org/dc/elements/1.1/" xmlns:cc="http://creativecommons.org/ns#" xmlns:rdf="http://www.w3.org/1999/02/22-rdf-syntax-ns#">
   <cc:Work>
    <dc:type rdf:resource="http://purl.org/dc/dcmitype/StillImage"/>
    <dc:date>2024-01-18T20:51:42.660192</dc:date>
    <dc:format>image/svg+xml</dc:format>
    <dc:creator>
     <cc:Agent>
      <dc:title>Matplotlib v3.8.2, https://matplotlib.org/</dc:title>
     </cc:Agent>
    </dc:creator>
   </cc:Work>
  </rdf:RDF>
 </metadata>
 <defs>
  <style type="text/css">*{stroke-linejoin: round; stroke-linecap: butt}</style>
 </defs>
 <g id="figure_1">
  <g id="patch_1">
   <path d="M 0 345.6
L 460.8 345.6
L 460.8 0
L 0 0
z
" style="fill: #ffffff"/>
  </g>
  <g id="axes_1">
   <g id="patch_2">
    <path d="M 47 303.64
L 437.185227 303.64
L 437.185227 10.8
L 47 10.8
z
" style="fill: #ffffff"/>
   </g>
   <g id="PolyCollection_1">
    <defs>
     <path id="m28812c6e0f" d="M 64.735692 -168.555242
L 64.735692 -130.793798
L 68.31866 -134.236376
L 71.901628 -137.473739
L 75.484596 -140.512192
L 79.067565 -143.358039
L 82.650533 -146.017585
L 86.233501 -148.497134
L 89.816469 -150.802992
L 93.399437 -152.941462
L 96.982405 -154.918849
L 100.565373 -156.741459
L 104.148341 -158.415595
L 107.731309 -159.947562
L 111.314278 -161.343664
L 114.897246 -162.610207
L 118.480214 -163.753495
L 122.063182 -164.779833
L 125.64615 -165.695525
L 129.229118 -166.506875
L 132.812086 -167.220189
L 136.395054 -167.84177
L 139.978022 -168.377925
L 143.560991 -168.834956
L 147.143959 -169.219169
L 150.726927 -169.536869
L 154.309895 -169.79436
L 157.892863 -169.997946
L 161.475831 -170.153933
L 165.058799 -170.268624
L 168.641767 -170.348325
L 172.224735 -170.399339
L 175.807704 -170.427973
L 179.390672 -170.440529
L 182.97364 -170.443314
L 186.556608 -170.132444
L 190.139576 -169.225474
L 193.722544 -167.760861
L 197.305512 -165.777064
L 200.88848 -163.312541
L 204.471448 -160.405749
L 208.054417 -157.095147
L 211.637385 -153.419194
L 215.220353 -149.416346
L 218.803321 -145.125063
L 222.386289 -140.583802
L 225.969257 -135.831021
L 229.552225 -130.905179
L 233.135193 -125.844734
L 236.718161 -120.688143
L 240.30113 -115.473865
L 243.884098 -110.240358
L 247.467066 -105.02608
L 251.050034 -99.86949
L 254.633002 -94.809044
L 258.21597 -89.883202
L 261.798938 -85.130421
L 265.381906 -80.58916
L 268.964874 -76.297877
L 272.547843 -72.295029
L 276.130811 -68.619076
L 279.713779 -65.308474
L 283.296747 -62.401682
L 286.879715 -59.937159
L 290.462683 -57.953362
L 294.045651 -56.488749
L 297.628619 -55.581779
L 301.211587 -55.270909
L 304.794556 -55.389541
L 308.377524 -55.74491
L 311.960492 -56.33623
L 315.54346 -57.162712
L 319.126428 -58.223567
L 322.709396 -59.518008
L 326.292364 -61.045246
L 329.875332 -62.804494
L 333.4583 -64.794964
L 337.041269 -67.015867
L 340.624237 -69.466415
L 344.207205 -72.14582
L 347.790173 -75.053295
L 351.373141 -78.188051
L 354.956109 -81.5493
L 358.539077 -85.136253
L 362.122045 -88.948124
L 365.705013 -92.984123
L 369.287982 -97.243463
L 372.87095 -101.725356
L 376.453918 -106.429013
L 380.036886 -111.353647
L 383.619854 -116.498469
L 387.202822 -121.862691
L 390.78579 -127.445526
L 394.368758 -133.246185
L 397.951726 -139.26388
L 401.534695 -145.497823
L 405.117663 -151.947225
L 408.700631 -158.6113
L 412.283599 -165.489259
L 415.866567 -172.580313
L 419.449535 -179.883675
L 419.449535 -217.645119
L 419.449535 -217.645119
L 415.866567 -214.311558
L 412.283599 -211.117802
L 408.700631 -208.061486
L 405.117663 -205.140246
L 401.534695 -202.351719
L 397.951726 -199.693539
L 394.368758 -197.163342
L 390.78579 -194.758765
L 387.202822 -192.477443
L 383.619854 -190.317012
L 380.036886 -188.275107
L 376.453918 -186.349365
L 372.87095 -184.537421
L 369.287982 -182.836911
L 365.705013 -181.24547
L 362.122045 -179.760735
L 358.539077 -178.380341
L 354.956109 -177.101925
L 351.373141 -175.923121
L 347.790173 -174.841566
L 344.207205 -173.854895
L 340.624237 -172.960744
L 337.041269 -172.156749
L 333.4583 -171.440545
L 329.875332 -170.809769
L 326.292364 -170.262057
L 322.709396 -169.795043
L 319.126428 -169.406364
L 315.54346 -169.093655
L 311.960492 -168.854553
L 308.377524 -168.686693
L 304.794556 -168.587711
L 301.211587 -168.555242
L 297.628619 -168.764187
L 294.045651 -169.37379
L 290.462683 -170.358202
L 286.879715 -171.691574
L 283.296747 -173.348057
L 279.713779 -175.301802
L 276.130811 -177.52696
L 272.547843 -179.997683
L 268.964874 -182.688122
L 265.381906 -185.572427
L 261.798938 -188.62475
L 258.21597 -191.819242
L 254.633002 -195.130054
L 251.050034 -198.531337
L 247.467066 -201.997242
L 243.884098 -205.501921
L 240.30113 -209.019524
L 236.718161 -212.524202
L 233.135193 -215.990107
L 229.552225 -219.39139
L 225.969257 -222.702202
L 222.386289 -225.896694
L 218.803321 -228.949017
L 215.220353 -231.833322
L 211.637385 -234.523761
L 208.054417 -236.994484
L 204.471448 -239.219642
L 200.88848 -241.173388
L 197.305512 -242.829871
L 193.722544 -244.163242
L 190.139576 -245.147654
L 186.556608 -245.757257
L 182.97364 -245.966202
L 179.390672 -245.895118
L 175.807704 -245.681865
L 172.224735 -245.326442
L 168.641767 -244.828851
L 165.058799 -244.189091
L 161.475831 -243.407162
L 157.892863 -242.483065
L 154.309895 -241.416798
L 150.726927 -240.208362
L 147.143959 -238.857758
L 143.560991 -237.364985
L 139.978022 -235.730042
L 136.395054 -233.952931
L 132.812086 -232.033651
L 129.229118 -229.972202
L 125.64615 -227.768585
L 122.063182 -225.422798
L 118.480214 -222.934842
L 114.897246 -220.304718
L 111.314278 -217.532424
L 107.731309 -214.617962
L 104.148341 -211.561331
L 100.565373 -208.362531
L 96.982405 -205.021562
L 93.399437 -201.538424
L 89.816469 -197.913118
L 86.233501 -194.145642
L 82.650533 -190.235998
L 79.067565 -186.184184
L 75.484596 -181.990202
L 71.901628 -177.654051
L 68.31866 -173.175731
L 64.735692 -168.555242
z
" style="stroke: #0173b2"/>
    </defs>
    <g clip-path="url(#p078a092d9f)">
     <use xlink:href="#m28812c6e0f" x="0" y="345.6" style="fill: #0173b2; stroke: #0173b2"/>
    </g>
   </g>
   <g id="PolyCollection_2">
    <defs>
     <path id="m053a4ff005" d="M 64.735692 -245.966202
L 64.735692 -170.443314
L 68.31866 -168.076722
L 71.901628 -165.782948
L 75.484596 -163.561993
L 79.067565 -161.413856
L 82.650533 -159.338537
L 86.233501 -157.336036
L 89.816469 -155.406353
L 93.399437 -153.549489
L 96.982405 -151.765443
L 100.565373 -150.054215
L 104.148341 -148.415805
L 107.731309 -146.850213
L 111.314278 -145.35744
L 114.897246 -143.937485
L 118.480214 -142.590348
L 122.063182 -141.316029
L 125.64615 -140.114529
L 129.229118 -138.985846
L 132.812086 -137.929982
L 136.395054 -136.946936
L 139.978022 -136.036709
L 143.560991 -135.199299
L 147.143959 -134.434708
L 150.726927 -133.742935
L 154.309895 -133.12398
L 157.892863 -132.577844
L 161.475831 -132.104525
L 165.058799 -131.704025
L 168.641767 -131.376343
L 172.224735 -131.12148
L 175.807704 -130.939434
L 179.390672 -130.830207
L 182.97364 -130.793798
L 186.556608 -130.900818
L 190.139576 -131.213054
L 193.722544 -131.717265
L 197.305512 -132.400211
L 200.88848 -133.248654
L 204.471448 -134.249353
L 208.054417 -135.389068
L 211.637385 -136.65456
L 215.220353 -138.03259
L 218.803321 -139.509917
L 222.386289 -141.073302
L 225.969257 -142.709505
L 229.552225 -144.405287
L 233.135193 -146.147407
L 236.718161 -147.922627
L 240.30113 -149.717706
L 243.884098 -151.519405
L 247.467066 -153.314485
L 251.050034 -155.089704
L 254.633002 -156.831825
L 258.21597 -158.527607
L 261.798938 -160.16381
L 265.381906 -161.727195
L 268.964874 -163.204522
L 272.547843 -164.582551
L 276.130811 -165.848043
L 279.713779 -166.987759
L 283.296747 -167.988458
L 286.879715 -168.8369
L 290.462683 -169.519847
L 294.045651 -170.024058
L 297.628619 -170.336293
L 301.211587 -170.443314
L 304.794556 -170.442999
L 308.377524 -170.440792
L 311.960492 -170.434803
L 315.54346 -170.423139
L 319.126428 -170.40391
L 322.709396 -170.375224
L 326.292364 -170.33519
L 329.875332 -170.281916
L 333.4583 -170.213511
L 337.041269 -170.128084
L 340.624237 -170.023742
L 344.207205 -169.898596
L 347.790173 -169.750753
L 351.373141 -169.578322
L 354.956109 -169.379412
L 358.539077 -169.15213
L 362.122045 -168.894587
L 365.705013 -168.604891
L 369.287982 -168.281149
L 372.87095 -167.921471
L 376.453918 -167.523966
L 380.036886 -167.086741
L 383.619854 -166.607906
L 387.202822 -166.08557
L 390.78579 -165.51784
L 394.368758 -164.902825
L 397.951726 -164.238635
L 401.534695 -163.523377
L 405.117663 -162.755161
L 408.700631 -161.932094
L 412.283599 -161.052286
L 415.866567 -160.113846
L 419.449535 -159.114881
L 419.449535 -177.995603
L 419.449535 -177.995603
L 415.866567 -186.69491
L 412.283599 -195.114135
L 408.700631 -203.254065
L 405.117663 -211.11549
L 401.534695 -218.699197
L 397.951726 -226.005974
L 394.368758 -233.036609
L 390.78579 -239.791891
L 387.202822 -246.272606
L 383.619854 -252.479545
L 380.036886 -258.413493
L 376.453918 -264.075241
L 372.87095 -269.465575
L 369.287982 -274.585283
L 365.705013 -279.435155
L 362.122045 -284.015977
L 358.539077 -288.328539
L 354.956109 -292.373627
L 351.373141 -296.152031
L 347.790173 -299.664538
L 344.207205 -302.911936
L 340.624237 -305.895013
L 337.041269 -308.614558
L 333.4583 -311.071358
L 329.875332 -313.266202
L 326.292364 -315.199878
L 322.709396 -316.873173
L 319.126428 -318.286876
L 315.54346 -319.441775
L 311.960492 -320.338658
L 308.377524 -320.978313
L 304.794556 -321.361528
L 301.211587 -321.489091
L 297.628619 -321.076297
L 294.045651 -319.871959
L 290.462683 -317.927146
L 286.879715 -315.292923
L 283.296747 -312.020359
L 279.713779 -308.160521
L 276.130811 -303.764476
L 272.547843 -298.883292
L 268.964874 -293.568035
L 265.381906 -287.869774
L 261.798938 -281.839574
L 258.21597 -275.528505
L 254.633002 -268.987633
L 251.050034 -262.268025
L 247.467066 -255.420749
L 243.884098 -248.496872
L 240.30113 -241.547461
L 236.718161 -234.623584
L 233.135193 -227.776308
L 229.552225 -221.0567
L 225.969257 -214.515828
L 222.386289 -208.204758
L 218.803321 -202.174559
L 215.220353 -196.476298
L 211.637385 -191.161041
L 208.054417 -186.279857
L 204.471448 -181.883812
L 200.88848 -178.023974
L 197.305512 -174.75141
L 193.722544 -172.117187
L 190.139576 -170.172374
L 186.556608 -168.968036
L 182.97364 -168.555242
L 179.390672 -168.592702
L 175.807704 -168.709284
L 172.224735 -168.911294
L 168.641767 -169.205037
L 165.058799 -169.596815
L 161.475831 -170.092935
L 157.892863 -170.699701
L 154.309895 -171.423418
L 150.726927 -172.270389
L 147.143959 -173.24692
L 143.560991 -174.359316
L 139.978022 -175.61388
L 136.395054 -177.016918
L 132.812086 -178.574734
L 129.229118 -180.293632
L 125.64615 -182.179918
L 122.063182 -184.239896
L 118.480214 -186.47987
L 114.897246 -188.906146
L 111.314278 -191.525027
L 107.731309 -194.342819
L 104.148341 -197.365825
L 100.565373 -200.600351
L 96.982405 -204.052702
L 93.399437 -207.729181
L 89.816469 -211.636093
L 86.233501 -215.779744
L 82.650533 -220.166437
L 79.067565 -224.802477
L 75.484596 -229.694169
L 71.901628 -234.847818
L 68.31866 -240.269727
L 64.735692 -245.966202
z
" style="stroke: #de8f05"/>
    </defs>
    <g clip-path="url(#p078a092d9f)">
     <use xlink:href="#m053a4ff005" x="0" y="345.6" style="fill: #de8f05; stroke: #de8f05"/>
    </g>
   </g>
   <g id="matplotlib.axis_1">
    <g id="xtick_1">
     <g id="line2d_1">
      <defs>
       <path id="mb31f9b7232" d="M 0 0
L 0 3.5
" style="stroke: #000000; stroke-width: 0.8"/>
      </defs>
      <g>
       <use xlink:href="#mb31f9b7232" x="64.735692" y="303.64" style="stroke: #000000; stroke-width: 0.8"/>
      </g>
     </g>
     <g id="text_1">
      <!-- 2022-01-01 -->
      <g transform="translate(35.67788 318.238437) scale(0.1 -0.1)">
       <defs>
        <path id="DejaVuSans-32" d="M 1228 531
L 3431 531
L 3431 0
L 469 0
L 469 531
Q 828 903 1448 1529
Q 2069 2156 2228 2338
Q 2531 2678 2651 2914
Q 2772 3150 2772 3378
Q 2772 3750 2511 3984
Q 2250 4219 1831 4219
Q 1534 4219 1204 4116
Q 875 4013 500 3803
L 500 4441
Q 881 4594 1212 4672
Q 1544 4750 1819 4750
Q 2544 4750 2975 4387
Q 3406 4025 3406 3419
Q 3406 3131 3298 2873
Q 3191 2616 2906 2266
Q 2828 2175 2409 1742
Q 1991 1309 1228 531
z
" transform="scale(0.015625)"/>
        <path id="DejaVuSans-30" d="M 2034 4250
Q 1547 4250 1301 3770
Q 1056 3291 1056 2328
Q 1056 1369 1301 889
Q 1547 409 2034 409
Q 2525 409 2770 889
Q 3016 1369 3016 2328
Q 3016 3291 2770 3770
Q 2525 4250 2034 4250
z
M 2034 4750
Q 2819 4750 3233 4129
Q 3647 3509 3647 2328
Q 3647 1150 3233 529
Q 2819 -91 2034 -91
Q 1250 -91 836 529
Q 422 1150 422 2328
Q 422 3509 836 4129
Q 1250 4750 2034 4750
z
" transform="scale(0.015625)"/>
        <path id="DejaVuSans-2d" d="M 313 2009
L 1997 2009
L 1997 1497
L 313 1497
L 313 2009
z
" transform="scale(0.015625)"/>
        <path id="DejaVuSans-31" d="M 794 531
L 1825 531
L 1825 4091
L 703 3866
L 703 4441
L 1819 4666
L 2450 4666
L 2450 531
L 3481 531
L 3481 0
L 794 0
L 794 531
z
" transform="scale(0.015625)"/>
       </defs>
       <use xlink:href="#DejaVuSans-32"/>
       <use xlink:href="#DejaVuSans-30" x="63.623047"/>
       <use xlink:href="#DejaVuSans-32" x="127.246094"/>
       <use xlink:href="#DejaVuSans-32" x="190.869141"/>
       <use xlink:href="#DejaVuSans-2d" x="254.492188"/>
       <use xlink:href="#DejaVuSans-30" x="290.576172"/>
       <use xlink:href="#DejaVuSans-31" x="354.199219"/>
       <use xlink:href="#DejaVuSans-2d" x="417.822266"/>
       <use xlink:href="#DejaVuSans-30" x="453.90625"/>
       <use xlink:href="#DejaVuSans-31" x="517.529297"/>
      </g>
     </g>
    </g>
    <g id="xtick_2">
     <g id="line2d_2">
      <g>
       <use xlink:href="#mb31f9b7232" x="182.97364" y="303.64" style="stroke: #000000; stroke-width: 0.8"/>
      </g>
     </g>
     <g id="text_2">
      <!-- 2022-01-02 -->
      <g transform="translate(153.915827 318.238437) scale(0.1 -0.1)">
       <use xlink:href="#DejaVuSans-32"/>
       <use xlink:href="#DejaVuSans-30" x="63.623047"/>
       <use xlink:href="#DejaVuSans-32" x="127.246094"/>
       <use xlink:href="#DejaVuSans-32" x="190.869141"/>
       <use xlink:href="#DejaVuSans-2d" x="254.492188"/>
       <use xlink:href="#DejaVuSans-30" x="290.576172"/>
       <use xlink:href="#DejaVuSans-31" x="354.199219"/>
       <use xlink:href="#DejaVuSans-2d" x="417.822266"/>
       <use xlink:href="#DejaVuSans-30" x="453.90625"/>
       <use xlink:href="#DejaVuSans-32" x="517.529297"/>
      </g>
     </g>
    </g>
    <g id="xtick_3">
     <g id="line2d_3">
      <g>
       <use xlink:href="#mb31f9b7232" x="301.211587" y="303.64" style="stroke: #000000; stroke-width: 0.8"/>
      </g>
     </g>
     <g id="text_3">
      <!-- 2022-01-03 -->
      <g transform="translate(272.153775 318.238437) scale(0.1 -0.1)">
       <defs>
        <path id="DejaVuSans-33" d="M 2597 2516
Q 3050 2419 3304 2112
Q 3559 1806 3559 1356
Q 3559 666 3084 287
Q 2609 -91 1734 -91
Q 1441 -91 1130 -33
Q 819 25 488 141
L 488 750
Q 750 597 1062 519
Q 1375 441 1716 441
Q 2309 441 2620 675
Q 2931 909 2931 1356
Q 2931 1769 2642 2001
Q 2353 2234 1838 2234
L 1294 2234
L 1294 2753
L 1863 2753
Q 2328 2753 2575 2939
Q 2822 3125 2822 3475
Q 2822 3834 2567 4026
Q 2313 4219 1838 4219
Q 1578 4219 1281 4162
Q 984 4106 628 3988
L 628 4550
Q 988 4650 1302 4700
Q 1616 4750 1894 4750
Q 2613 4750 3031 4423
Q 3450 4097 3450 3541
Q 3450 3153 3228 2886
Q 3006 2619 2597 2516
z
" transform="scale(0.015625)"/>
       </defs>
       <use xlink:href="#DejaVuSans-32"/>
       <use xlink:href="#DejaVuSans-30" x="63.623047"/>
       <use xlink:href="#DejaVuSans-32" x="127.246094"/>
       <use xlink:href="#DejaVuSans-32" x="190.869141"/>
       <use xlink:href="#DejaVuSans-2d" x="254.492188"/>
       <use xlink:href="#DejaVuSans-30" x="290.576172"/>
       <use xlink:href="#DejaVuSans-31" x="354.199219"/>
       <use xlink:href="#DejaVuSans-2d" x="417.822266"/>
       <use xlink:href="#DejaVuSans-30" x="453.90625"/>
       <use xlink:href="#DejaVuSans-33" x="517.529297"/>
      </g>
     </g>
    </g>
    <g id="xtick_4">
     <g id="line2d_4">
      <g>
       <use xlink:href="#mb31f9b7232" x="419.449535" y="303.64" style="stroke: #000000; stroke-width: 0.8"/>
      </g>
     </g>
     <g id="text_4">
      <!-- 2022-01-04 -->
      <g transform="translate(390.391723 318.238437) scale(0.1 -0.1)">
       <defs>
        <path id="DejaVuSans-34" d="M 2419 4116
L 825 1625
L 2419 1625
L 2419 4116
z
M 2253 4666
L 3047 4666
L 3047 1625
L 3713 1625
L 3713 1100
L 3047 1100
L 3047 0
L 2419 0
L 2419 1100
L 313 1100
L 313 1709
L 2253 4666
z
" transform="scale(0.015625)"/>
       </defs>
       <use xlink:href="#DejaVuSans-32"/>
       <use xlink:href="#DejaVuSans-30" x="63.623047"/>
       <use xlink:href="#DejaVuSans-32" x="127.246094"/>
       <use xlink:href="#DejaVuSans-32" x="190.869141"/>
       <use xlink:href="#DejaVuSans-2d" x="254.492188"/>
       <use xlink:href="#DejaVuSans-30" x="290.576172"/>
       <use xlink:href="#DejaVuSans-31" x="354.199219"/>
       <use xlink:href="#DejaVuSans-2d" x="417.822266"/>
       <use xlink:href="#DejaVuSans-30" x="453.90625"/>
       <use xlink:href="#DejaVuSans-34" x="517.529297"/>
      </g>
     </g>
    </g>
    <g id="text_5">
     <!-- my_x -->
     <g transform="translate(228.803551 331.638437) scale(0.1 -0.1)">
      <defs>
       <path id="DejaVuSans-6d" d="M 3328 2828
Q 3544 3216 3844 3400
Q 4144 3584 4550 3584
Q 5097 3584 5394 3201
Q 5691 2819 5691 2113
L 5691 0
L 5113 0
L 5113 2094
Q 5113 2597 4934 2840
Q 4756 3084 4391 3084
Q 3944 3084 3684 2787
Q 3425 2491 3425 1978
L 3425 0
L 2847 0
L 2847 2094
Q 2847 2600 2669 2842
Q 2491 3084 2119 3084
Q 1678 3084 1418 2786
Q 1159 2488 1159 1978
L 1159 0
L 581 0
L 581 3500
L 1159 3500
L 1159 2956
Q 1356 3278 1631 3431
Q 1906 3584 2284 3584
Q 2666 3584 2933 3390
Q 3200 3197 3328 2828
z
" transform="scale(0.015625)"/>
       <path id="DejaVuSans-79" d="M 2059 -325
Q 1816 -950 1584 -1140
Q 1353 -1331 966 -1331
L 506 -1331
L 506 -850
L 844 -850
Q 1081 -850 1212 -737
Q 1344 -625 1503 -206
L 1606 56
L 191 3500
L 800 3500
L 1894 763
L 2988 3500
L 3597 3500
L 2059 -325
z
" transform="scale(0.015625)"/>
       <path id="DejaVuSans-5f" d="M 3263 -1063
L 3263 -1509
L -63 -1509
L -63 -1063
L 3263 -1063
z
" transform="scale(0.015625)"/>
       <path id="DejaVuSans-78" d="M 3513 3500
L 2247 1797
L 3578 0
L 2900 0
L 1881 1375
L 863 0
L 184 0
L 1544 1831
L 300 3500
L 978 3500
L 1906 2253
L 2834 3500
L 3513 3500
z
" transform="scale(0.015625)"/>
      </defs>
      <use xlink:href="#DejaVuSans-6d"/>
      <use xlink:href="#DejaVuSans-79" x="97.412109"/>
      <use xlink:href="#DejaVuSans-5f" x="156.591797"/>
      <use xlink:href="#DejaVuSans-78" x="206.591797"/>
     </g>
    </g>
   </g>
   <g id="matplotlib.axis_2">
    <g id="ytick_1">
     <g id="line2d_5">
      <defs>
       <path id="m4bf72dd0f7" d="M 0 0
L -3.5 0
" style="stroke: #000000; stroke-width: 0.8"/>
      </defs>
      <g>
       <use xlink:href="#m4bf72dd0f7" x="47" y="270.504333" style="stroke: #000000; stroke-width: 0.8"/>
      </g>
     </g>
     <g id="text_6">
      <!-- −3 -->
      <g transform="translate(25.257813 274.303551) scale(0.1 -0.1)">
       <defs>
        <path id="DejaVuSans-2212" d="M 678 2272
L 4684 2272
L 4684 1741
L 678 1741
L 678 2272
z
" transform="scale(0.015625)"/>
       </defs>
       <use xlink:href="#DejaVuSans-2212"/>
       <use xlink:href="#DejaVuSans-33" x="83.789062"/>
      </g>
     </g>
    </g>
    <g id="ytick_2">
     <g id="line2d_6">
      <g>
       <use xlink:href="#m4bf72dd0f7" x="47" y="232.742888" style="stroke: #000000; stroke-width: 0.8"/>
      </g>
     </g>
     <g id="text_7">
      <!-- −2 -->
      <g transform="translate(25.257813 236.542107) scale(0.1 -0.1)">
       <use xlink:href="#DejaVuSans-2212"/>
       <use xlink:href="#DejaVuSans-32" x="83.789062"/>
      </g>
     </g>
    </g>
    <g id="ytick_3">
     <g id="line2d_7">
      <g>
       <use xlink:href="#m4bf72dd0f7" x="47" y="194.981444" style="stroke: #000000; stroke-width: 0.8"/>
      </g>
     </g>
     <g id="text_8">
      <!-- −1 -->
      <g transform="translate(25.257813 198.780663) scale(0.1 -0.1)">
       <use xlink:href="#DejaVuSans-2212"/>
       <use xlink:href="#DejaVuSans-31" x="83.789062"/>
      </g>
     </g>
    </g>
    <g id="ytick_4">
     <g id="line2d_8">
      <g>
       <use xlink:href="#m4bf72dd0f7" x="47" y="157.22" style="stroke: #000000; stroke-width: 0.8"/>
      </g>
     </g>
     <g id="text_9">
      <!-- 0 -->
      <g transform="translate(33.6375 161.019219) scale(0.1 -0.1)">
       <use xlink:href="#DejaVuSans-30"/>
      </g>
     </g>
    </g>
    <g id="ytick_5">
     <g id="line2d_9">
      <g>
       <use xlink:href="#m4bf72dd0f7" x="47" y="119.458556" style="stroke: #000000; stroke-width: 0.8"/>
      </g>
     </g>
     <g id="text_10">
      <!-- 1 -->
      <g transform="translate(33.6375 123.257775) scale(0.1 -0.1)">
       <use xlink:href="#DejaVuSans-31"/>
      </g>
     </g>
    </g>
    <g id="ytick_6">
     <g id="line2d_10">
      <g>
       <use xlink:href="#m4bf72dd0f7" x="47" y="81.697112" style="stroke: #000000; stroke-width: 0.8"/>
      </g>
     </g>
     <g id="text_11">
      <!-- 2 -->
      <g transform="translate(33.6375 85.49633) scale(0.1 -0.1)">
       <use xlink:href="#DejaVuSans-32"/>
      </g>
     </g>
    </g>
    <g id="ytick_7">
     <g id="line2d_11">
      <g>
       <use xlink:href="#m4bf72dd0f7" x="47" y="43.935667" style="stroke: #000000; stroke-width: 0.8"/>
      </g>
     </g>
     <g id="text_12">
      <!-- 3 -->
      <g transform="translate(33.6375 47.734886) scale(0.1 -0.1)">
       <use xlink:href="#DejaVuSans-33"/>
      </g>
     </g>
    </g>
    <g id="text_13">
     <!-- my_height -->
     <g transform="translate(18.9 183.487188) rotate(-90) scale(0.1 -0.1)">
      <defs>
       <path id="DejaVuSans-68" d="M 3513 2113
L 3513 0
L 2938 0
L 2938 2094
Q 2938 2591 2744 2837
Q 2550 3084 2163 3084
Q 1697 3084 1428 2787
Q 1159 2491 1159 1978
L 1159 0
L 581 0
L 581 4863
L 1159 4863
L 1159 2956
Q 1366 3272 1645 3428
Q 1925 3584 2291 3584
Q 2894 3584 3203 3211
Q 3513 2838 3513 2113
z
" transform="scale(0.015625)"/>
       <path id="DejaVuSans-65" d="M 3597 1894
L 3597 1613
L 953 1613
Q 991 1019 1311 708
Q 1631 397 2203 397
Q 2534 397 2845 478
Q 3156 559 3463 722
L 3463 178
Q 3153 47 2828 -22
Q 2503 -91 2169 -91
Q 1331 -91 842 396
Q 353 884 353 1716
Q 353 2575 817 3079
Q 1281 3584 2069 3584
Q 2775 3584 3186 3129
Q 3597 2675 3597 1894
z
M 3022 2063
Q 3016 2534 2758 2815
Q 2500 3097 2075 3097
Q 1594 3097 1305 2825
Q 1016 2553 972 2059
L 3022 2063
z
" transform="scale(0.015625)"/>
       <path id="DejaVuSans-69" d="M 603 3500
L 1178 3500
L 1178 0
L 603 0
L 603 3500
z
M 603 4863
L 1178 4863
L 1178 4134
L 603 4134
L 603 4863
z
" transform="scale(0.015625)"/>
       <path id="DejaVuSans-67" d="M 2906 1791
Q 2906 2416 2648 2759
Q 2391 3103 1925 3103
Q 1463 3103 1205 2759
Q 947 2416 947 1791
Q 947 1169 1205 825
Q 1463 481 1925 481
Q 2391 481 2648 825
Q 2906 1169 2906 1791
z
M 3481 434
Q 3481 -459 3084 -895
Q 2688 -1331 1869 -1331
Q 1566 -1331 1297 -1286
Q 1028 -1241 775 -1147
L 775 -588
Q 1028 -725 1275 -790
Q 1522 -856 1778 -856
Q 2344 -856 2625 -561
Q 2906 -266 2906 331
L 2906 616
Q 2728 306 2450 153
Q 2172 0 1784 0
Q 1141 0 747 490
Q 353 981 353 1791
Q 353 2603 747 3093
Q 1141 3584 1784 3584
Q 2172 3584 2450 3431
Q 2728 3278 2906 2969
L 2906 3500
L 3481 3500
L 3481 434
z
" transform="scale(0.015625)"/>
       <path id="DejaVuSans-74" d="M 1172 4494
L 1172 3500
L 2356 3500
L 2356 3053
L 1172 3053
L 1172 1153
Q 1172 725 1289 603
Q 1406 481 1766 481
L 2356 481
L 2356 0
L 1766 0
Q 1100 0 847 248
Q 594 497 594 1153
L 594 3053
L 172 3053
L 172 3500
L 594 3500
L 594 4494
L 1172 4494
z
" transform="scale(0.015625)"/>
      </defs>
      <use xlink:href="#DejaVuSans-6d"/>
      <use xlink:href="#DejaVuSans-79" x="97.412109"/>
      <use xlink:href="#DejaVuSans-5f" x="156.591797"/>
      <use xlink:href="#DejaVuSans-68" x="206.591797"/>
      <use xlink:href="#DejaVuSans-65" x="269.970703"/>
      <use xlink:href="#DejaVuSans-69" x="331.494141"/>
      <use xlink:href="#DejaVuSans-67" x="359.277344"/>
      <use xlink:href="#DejaVuSans-68" x="422.753906"/>
      <use xlink:href="#DejaVuSans-74" x="486.132812"/>
     </g>
    </g>
   </g>
   <g id="patch_3">
    <path d="M 47 303.64
L 47 10.8
" style="fill: none; stroke: #000000; stroke-width: 0.8; stroke-linejoin: miter; stroke-linecap: square"/>
   </g>
   <g id="patch_4">
    <path d="M 437.185227 303.64
L 437.185227 10.8
" style="fill: none; stroke: #000000; stroke-width: 0.8; stroke-linejoin: miter; stroke-linecap: square"/>
   </g>
   <g id="patch_5">
    <path d="M 47 303.64
L 437.185227 303.64
" style="fill: none; stroke: #000000; stroke-width: 0.8; stroke-linejoin: miter; stroke-linecap: square"/>
   </g>
   <g id="patch_6">
    <path d="M 47 10.8
L 437.185227 10.8
" style="fill: none; stroke: #000000; stroke-width: 0.8; stroke-linejoin: miter; stroke-linecap: square"/>
   </g>
   <g id="legend_1">
    <g id="patch_7">
     <path d="M 391.83679 48.15625
L 430.185227 48.15625
Q 432.185227 48.15625 432.185227 46.15625
L 432.185227 17.8
Q 432.185227 15.8 430.185227 15.8
L 391.83679 15.8
Q 389.83679 15.8 389.83679 17.8
L 389.83679 46.15625
Q 389.83679 48.15625 391.83679 48.15625
z
" style="fill: #ffffff; opacity: 0.8; stroke: #cccccc; stroke-linejoin: miter"/>
    </g>
    <g id="patch_8">
     <path d="M 393.83679 27.398438
L 413.83679 27.398438
L 413.83679 20.398438
L 393.83679 20.398438
z
" style="fill: #0173b2; stroke: #0173b2; stroke-linejoin: miter"/>
    </g>
    <g id="text_14">
     <!-- a -->
     <g transform="translate(421.83679 27.398438) scale(0.1 -0.1)">
      <defs>
       <path id="DejaVuSans-61" d="M 2194 1759
Q 1497 1759 1228 1600
Q 959 1441 959 1056
Q 959 750 1161 570
Q 1363 391 1709 391
Q 2188 391 2477 730
Q 2766 1069 2766 1631
L 2766 1759
L 2194 1759
z
M 3341 1997
L 3341 0
L 2766 0
L 2766 531
Q 2569 213 2275 61
Q 1981 -91 1556 -91
Q 1019 -91 701 211
Q 384 513 384 1019
Q 384 1609 779 1909
Q 1175 2209 1959 2209
L 2766 2209
L 2766 2266
Q 2766 2663 2505 2880
Q 2244 3097 1772 3097
Q 1472 3097 1187 3025
Q 903 2953 641 2809
L 641 3341
Q 956 3463 1253 3523
Q 1550 3584 1831 3584
Q 2591 3584 2966 3190
Q 3341 2797 3341 1997
z
" transform="scale(0.015625)"/>
      </defs>
      <use xlink:href="#DejaVuSans-61"/>
     </g>
    </g>
    <g id="patch_9">
     <path d="M 393.83679 42.076563
L 413.83679 42.076563
L 413.83679 35.076563
L 393.83679 35.076563
z
" style="fill: #de8f05; stroke: #de8f05; stroke-linejoin: miter"/>
    </g>
    <g id="text_15">
     <!-- b -->
     <g transform="translate(421.83679 42.076563) scale(0.1 -0.1)">
      <defs>
       <path id="DejaVuSans-62" d="M 3116 1747
Q 3116 2381 2855 2742
Q 2594 3103 2138 3103
Q 1681 3103 1420 2742
Q 1159 2381 1159 1747
Q 1159 1113 1420 752
Q 1681 391 2138 391
Q 2594 391 2855 752
Q 3116 1113 3116 1747
z
M 1159 2969
Q 1341 3281 1617 3432
Q 1894 3584 2278 3584
Q 2916 3584 3314 3078
Q 3713 2572 3713 1747
Q 3713 922 3314 415
Q 2916 -91 2278 -91
Q 1894 -91 1617 61
Q 1341 213 1159 525
L 1159 0
L 581 0
L 581 4863
L 1159 4863
L 1159 2969
z
" transform="scale(0.015625)"/>
      </defs>
      <use xlink:href="#DejaVuSans-62"/>
     </g>
    </g>
   </g>
  </g>
 </g>
 <defs>
  <clipPath id="p078a092d9f">
   <rect x="47" y="10.8" width="390.185227" height="292.84"/>
  </clipPath>
 </defs>
</svg>
