<?xml version="1.0" encoding="utf-8" standalone="no"?>
<!DOCTYPE svg PUBLIC "-//W3C//DTD SVG 1.1//EN"
  "http://www.w3.org/Graphics/SVG/1.1/DTD/svg11.dtd">
<svg xmlns:xlink="http://www.w3.org/1999/xlink" width="460.8pt" height="345.6pt" viewBox="0 0 460.8 345.6" xmlns="http://www.w3.org/2000/svg" version="1.1">
 <metadata>
  <rdf:RDF xmlns:dc="http://purl.org/dc/elements/1.1/" xmlns:cc="http://creativecommons.org/ns#" xmlns:rdf="http://www.w3.org/1999/02/22-rdf-syntax-ns#">
   <cc:Work>
    <dc:type rdf:resource="http://purl.org/dc/dcmitype/StillImage"/>
    <dc:date>2024-01-18T14:38:50.094935</dc:date>
    <dc:format>image/svg+xml</dc:format>
    <dc:creator>
     <cc:Agent>
      <dc:title>Matplotlib v3.8.2, https://matplotlib.org/</dc:title>
     </cc:Agent>
    </dc:creator>
   </cc:Work>
  </rdf:RDF>
 </metadata>
 <defs>
  <style type="text/css">*{stroke-linejoin: round; stroke-linecap: butt}</style>
 </defs>
 <g id="figure_1">
  <g id="patch_1">
   <path d="M 0 345.6
L 460.8 345.6
L 460.8 0
L 0 0
z
" style="fill: #ffffff"/>
  </g>
  <g id="axes_1">
   <g id="patch_2">
    <path d="M 57.6 307.584
L 414.72 307.584
L 414.72 41.472
L 57.6 41.472
z
" style="fill: #ffffff"/>
   </g>
   <g id="PolyCollection_1">
    <defs>
     <path id="me036742178" d="M 73.832727 -195.264
L 73.832727 -50.112
L 77.112066 -50.112
L 80.391405 -50.112
L 83.670744 -50.112
L 86.950083 -50.112
L 90.229421 -50.112
L 93.50876 -50.112
L 96.788099 -50.112
L 100.067438 -50.112
L 103.346777 -50.112
L 106.626116 -50.112
L 109.905455 -50.112
L 113.184793 -50.112
L 116.464132 -50.112
L 119.743471 -50.112
L 123.02281 -50.112
L 126.302149 -50.112
L 129.581488 -50.112
L 132.860826 -50.112
L 136.140165 -50.112
L 139.419504 -50.112
L 142.698843 -50.112
L 145.978182 -50.112
L 149.257521 -50.112
L 152.53686 -50.112
L 155.816198 -50.112
L 159.095537 -50.112
L 162.374876 -50.112
L 165.654215 -50.112
L 168.933554 -50.112
L 172.212893 -50.112
L 175.492231 -50.112
L 178.77157 -50.112
L 182.050909 -50.112
L 185.330248 -50.373193
L 188.609587 -51.135231
L 191.888926 -52.3658
L 195.168264 -54.032589
L 198.447603 -56.103285
L 201.726942 -58.545575
L 205.006281 -61.327147
L 208.28562 -64.415687
L 211.564959 -67.778885
L 214.844298 -71.384427
L 218.123636 -75.2
L 221.402975 -79.193292
L 224.682314 -83.331991
L 227.961653 -87.583784
L 231.240992 -91.916358
L 234.520331 -96.2974
L 237.799669 -100.6946
L 241.079008 -105.075642
L 244.358347 -109.408216
L 247.637686 -113.660009
L 250.917025 -117.798708
L 254.196364 -121.792
L 257.475702 -125.607573
L 260.755041 -129.213115
L 264.03438 -132.576313
L 267.313719 -135.664853
L 270.593058 -138.446425
L 273.872397 -140.888715
L 277.151736 -142.959411
L 280.431074 -144.6262
L 283.710413 -145.856769
L 286.989752 -146.618807
L 290.269091 -146.88
L 293.54843 -146.79114
L 296.827769 -146.524562
L 300.107107 -146.080264
L 303.386446 -145.458248
L 306.665785 -144.658512
L 309.945124 -143.681058
L 313.224463 -142.525884
L 316.503802 -141.192992
L 319.78314 -139.68238
L 323.062479 -137.99405
L 326.341818 -136.128
L 329.621157 -134.084231
L 332.900496 -131.862744
L 336.179835 -129.463537
L 339.459174 -126.886612
L 342.738512 -124.131967
L 346.017851 -121.199603
L 349.29719 -118.089521
L 352.576529 -114.801719
L 355.855868 -111.336198
L 359.135207 -107.692959
L 362.414545 -103.872
L 365.693884 -99.873322
L 368.973223 -95.696926
L 372.252562 -91.34281
L 375.531901 -86.810975
L 378.81124 -82.101421
L 382.090579 -77.214149
L 385.369917 -72.149157
L 388.649256 -66.906446
L 391.928595 -61.486017
L 395.207934 -55.887868
L 398.487273 -50.112
L 398.487273 -195.264
L 398.487273 -195.264
L 395.207934 -195.264
L 391.928595 -195.264
L 388.649256 -195.264
L 385.369917 -195.264
L 382.090579 -195.264
L 378.81124 -195.264
L 375.531901 -195.264
L 372.252562 -195.264
L 368.973223 -195.264
L 365.693884 -195.264
L 362.414545 -195.264
L 359.135207 -195.264
L 355.855868 -195.264
L 352.576529 -195.264
L 349.29719 -195.264
L 346.017851 -195.264
L 342.738512 -195.264
L 339.459174 -195.264
L 336.179835 -195.264
L 332.900496 -195.264
L 329.621157 -195.264
L 326.341818 -195.264
L 323.062479 -195.264
L 319.78314 -195.264
L 316.503802 -195.264
L 313.224463 -195.264
L 309.945124 -195.264
L 306.665785 -195.264
L 303.386446 -195.264
L 300.107107 -195.264
L 296.827769 -195.264
L 293.54843 -195.264
L 290.269091 -195.264
L 286.989752 -195.264
L 283.710413 -195.264
L 280.431074 -195.264
L 277.151736 -195.264
L 273.872397 -195.264
L 270.593058 -195.264
L 267.313719 -195.264
L 264.03438 -195.264
L 260.755041 -195.264
L 257.475702 -195.264
L 254.196364 -195.264
L 250.917025 -195.264
L 247.637686 -195.264
L 244.358347 -195.264
L 241.079008 -195.264
L 237.799669 -195.264
L 234.520331 -195.264
L 231.240992 -195.264
L 227.961653 -195.264
L 224.682314 -195.264
L 221.402975 -195.264
L 218.123636 -195.264
L 214.844298 -195.264
L 211.564959 -195.264
L 208.28562 -195.264
L 205.006281 -195.264
L 201.726942 -195.264
L 198.447603 -195.264
L 195.168264 -195.264
L 191.888926 -195.264
L 188.609587 -195.264
L 185.330248 -195.264
L 182.050909 -195.264
L 178.77157 -195.264
L 175.492231 -195.264
L 172.212893 -195.264
L 168.933554 -195.264
L 165.654215 -195.264
L 162.374876 -195.264
L 159.095537 -195.264
L 155.816198 -195.264
L 152.53686 -195.264
L 149.257521 -195.264
L 145.978182 -195.264
L 142.698843 -195.264
L 139.419504 -195.264
L 136.140165 -195.264
L 132.860826 -195.264
L 129.581488 -195.264
L 126.302149 -195.264
L 123.02281 -195.264
L 119.743471 -195.264
L 116.464132 -195.264
L 113.184793 -195.264
L 109.905455 -195.264
L 106.626116 -195.264
L 103.346777 -195.264
L 100.067438 -195.264
L 96.788099 -195.264
L 93.50876 -195.264
L 90.229421 -195.264
L 86.950083 -195.264
L 83.670744 -195.264
L 80.391405 -195.264
L 77.112066 -195.264
L 73.832727 -195.264
z
" style="stroke: #0173b2"/>
    </defs>
    <g clip-path="url(#p048a952150)">
     <use xlink:href="#me036742178" x="0" y="345.6" style="fill: #0173b2; stroke: #0173b2"/>
    </g>
   </g>
   <g id="PolyCollection_2">
    <defs>
     <path id="m98ae226971" d="M 73.832727 -292.032
L 73.832727 -195.264
L 77.112066 -195.264
L 80.391405 -195.264
L 83.670744 -195.264
L 86.950083 -195.264
L 90.229421 -195.264
L 93.50876 -195.264
L 96.788099 -195.264
L 100.067438 -195.264
L 103.346777 -195.264
L 106.626116 -195.264
L 109.905455 -195.264
L 113.184793 -195.264
L 116.464132 -195.264
L 119.743471 -195.264
L 123.02281 -195.264
L 126.302149 -195.264
L 129.581488 -195.264
L 132.860826 -195.264
L 136.140165 -195.264
L 139.419504 -195.264
L 142.698843 -195.264
L 145.978182 -195.264
L 149.257521 -195.264
L 152.53686 -195.264
L 155.816198 -195.264
L 159.095537 -195.264
L 162.374876 -195.264
L 165.654215 -195.264
L 168.933554 -195.264
L 172.212893 -195.264
L 175.492231 -195.264
L 178.77157 -195.264
L 182.050909 -195.264
L 185.330248 -194.87221
L 188.609587 -193.729154
L 191.888926 -191.8833
L 195.168264 -189.383116
L 198.447603 -186.277073
L 201.726942 -182.613638
L 205.006281 -178.44128
L 208.28562 -173.808469
L 211.564959 -168.763672
L 214.844298 -163.35536
L 218.123636 -157.632
L 221.402975 -151.642062
L 224.682314 -145.434014
L 227.961653 -139.056325
L 231.240992 -132.557464
L 234.520331 -125.985899
L 237.799669 -119.390101
L 241.079008 -112.818536
L 244.358347 -106.319675
L 247.637686 -99.941986
L 250.917025 -93.733938
L 254.196364 -87.744
L 257.475702 -82.02064
L 260.755041 -76.612328
L 264.03438 -71.567531
L 267.313719 -66.93472
L 270.593058 -62.762362
L 273.872397 -59.098927
L 277.151736 -55.992884
L 280.431074 -53.4927
L 283.710413 -51.646846
L 286.989752 -50.50379
L 290.269091 -50.112
L 293.54843 -50.245289
L 296.827769 -50.645157
L 300.107107 -51.311603
L 303.386446 -52.244628
L 306.665785 -53.444231
L 309.945124 -54.910413
L 313.224463 -56.643174
L 316.503802 -58.642512
L 319.78314 -60.90843
L 323.062479 -63.440926
L 326.341818 -66.24
L 329.621157 -69.305653
L 332.900496 -72.637884
L 336.179835 -76.236694
L 339.459174 -80.102083
L 342.738512 -84.23405
L 346.017851 -88.632595
L 349.29719 -93.297719
L 352.576529 -98.229421
L 355.855868 -103.427702
L 359.135207 -108.892562
L 362.414545 -114.624
L 365.693884 -120.622017
L 368.973223 -126.886612
L 372.252562 -133.417785
L 375.531901 -140.215537
L 378.81124 -147.279868
L 382.090579 -154.610777
L 385.369917 -162.208264
L 388.649256 -170.072331
L 391.928595 -178.202975
L 395.207934 -186.600198
L 398.487273 -195.264
L 398.487273 -292.032
L 398.487273 -292.032
L 395.207934 -283.368198
L 391.928595 -274.970975
L 388.649256 -266.840331
L 385.369917 -258.976264
L 382.090579 -251.378777
L 378.81124 -244.047868
L 375.531901 -236.983537
L 372.252562 -230.185785
L 368.973223 -223.654612
L 365.693884 -217.390017
L 362.414545 -211.392
L 359.135207 -205.660562
L 355.855868 -200.195702
L 352.576529 -194.997421
L 349.29719 -190.065719
L 346.017851 -185.400595
L 342.738512 -181.00205
L 339.459174 -176.870083
L 336.179835 -173.004694
L 332.900496 -169.405884
L 329.621157 -166.073653
L 326.341818 -163.008
L 323.062479 -160.208926
L 319.78314 -157.67643
L 316.503802 -155.410512
L 313.224463 -153.411174
L 309.945124 -151.678413
L 306.665785 -150.212231
L 303.386446 -149.012628
L 300.107107 -148.079603
L 296.827769 -147.413157
L 293.54843 -147.013289
L 290.269091 -146.88
L 286.989752 -147.27179
L 283.710413 -148.414846
L 280.431074 -150.2607
L 277.151736 -152.760884
L 273.872397 -155.866927
L 270.593058 -159.530362
L 267.313719 -163.70272
L 264.03438 -168.335531
L 260.755041 -173.380328
L 257.475702 -178.78864
L 254.196364 -184.512
L 250.917025 -190.501938
L 247.637686 -196.709986
L 244.358347 -203.087675
L 241.079008 -209.586536
L 237.799669 -216.158101
L 234.520331 -222.753899
L 231.240992 -229.325464
L 227.961653 -235.824325
L 224.682314 -242.202014
L 221.402975 -248.410062
L 218.123636 -254.4
L 214.844298 -260.12336
L 211.564959 -265.531672
L 208.28562 -270.576469
L 205.006281 -275.20928
L 201.726942 -279.381638
L 198.447603 -283.045073
L 195.168264 -286.151116
L 191.888926 -288.6513
L 188.609587 -290.497154
L 185.330248 -291.64021
L 182.050909 -292.032
L 178.77157 -292.032
L 175.492231 -292.032
L 172.212893 -292.032
L 168.933554 -292.032
L 165.654215 -292.032
L 162.374876 -292.032
L 159.095537 -292.032
L 155.816198 -292.032
L 152.53686 -292.032
L 149.257521 -292.032
L 145.978182 -292.032
L 142.698843 -292.032
L 139.419504 -292.032
L 136.140165 -292.032
L 132.860826 -292.032
L 129.581488 -292.032
L 126.302149 -292.032
L 123.02281 -292.032
L 119.743471 -292.032
L 116.464132 -292.032
L 113.184793 -292.032
L 109.905455 -292.032
L 106.626116 -292.032
L 103.346777 -292.032
L 100.067438 -292.032
L 96.788099 -292.032
L 93.50876 -292.032
L 90.229421 -292.032
L 86.950083 -292.032
L 83.670744 -292.032
L 80.391405 -292.032
L 77.112066 -292.032
L 73.832727 -292.032
z
" style="stroke: #de8f05"/>
    </defs>
    <g clip-path="url(#p048a952150)">
     <use xlink:href="#m98ae226971" x="0" y="345.6" style="fill: #de8f05; stroke: #de8f05"/>
    </g>
   </g>
   <g id="matplotlib.axis_1">
    <g id="xtick_1">
     <g id="line2d_1">
      <defs>
       <path id="m5dd95bc949" d="M 0 0
L 0 3.5
" style="stroke: #000000; stroke-width: 0.8"/>
      </defs>
      <g>
       <use xlink:href="#m5dd95bc949" x="73.832727" y="307.584" style="stroke: #000000; stroke-width: 0.8"/>
      </g>
     </g>
     <g id="text_1">
      <!-- 1.0 -->
      <g transform="translate(65.881165 322.182437) scale(0.1 -0.1)">
       <defs>
        <path id="DejaVuSans-31" d="M 794 531
L 1825 531
L 1825 4091
L 703 3866
L 703 4441
L 1819 4666
L 2450 4666
L 2450 531
L 3481 531
L 3481 0
L 794 0
L 794 531
z
" transform="scale(0.015625)"/>
        <path id="DejaVuSans-2e" d="M 684 794
L 1344 794
L 1344 0
L 684 0
L 684 794
z
" transform="scale(0.015625)"/>
        <path id="DejaVuSans-30" d="M 2034 4250
Q 1547 4250 1301 3770
Q 1056 3291 1056 2328
Q 1056 1369 1301 889
Q 1547 409 2034 409
Q 2525 409 2770 889
Q 3016 1369 3016 2328
Q 3016 3291 2770 3770
Q 2525 4250 2034 4250
z
M 2034 4750
Q 2819 4750 3233 4129
Q 3647 3509 3647 2328
Q 3647 1150 3233 529
Q 2819 -91 2034 -91
Q 1250 -91 836 529
Q 422 1150 422 2328
Q 422 3509 836 4129
Q 1250 4750 2034 4750
z
" transform="scale(0.015625)"/>
       </defs>
       <use xlink:href="#DejaVuSans-31"/>
       <use xlink:href="#DejaVuSans-2e" x="63.623047"/>
       <use xlink:href="#DejaVuSans-30" x="95.410156"/>
      </g>
     </g>
    </g>
    <g id="xtick_2">
     <g id="line2d_2">
      <g>
       <use xlink:href="#m5dd95bc949" x="127.941818" y="307.584" style="stroke: #000000; stroke-width: 0.8"/>
      </g>
     </g>
     <g id="text_2">
      <!-- 1.5 -->
      <g transform="translate(119.990256 322.182437) scale(0.1 -0.1)">
       <defs>
        <path id="DejaVuSans-35" d="M 691 4666
L 3169 4666
L 3169 4134
L 1269 4134
L 1269 2991
Q 1406 3038 1543 3061
Q 1681 3084 1819 3084
Q 2600 3084 3056 2656
Q 3513 2228 3513 1497
Q 3513 744 3044 326
Q 2575 -91 1722 -91
Q 1428 -91 1123 -41
Q 819 9 494 109
L 494 744
Q 775 591 1075 516
Q 1375 441 1709 441
Q 2250 441 2565 725
Q 2881 1009 2881 1497
Q 2881 1984 2565 2268
Q 2250 2553 1709 2553
Q 1456 2553 1204 2497
Q 953 2441 691 2322
L 691 4666
z
" transform="scale(0.015625)"/>
       </defs>
       <use xlink:href="#DejaVuSans-31"/>
       <use xlink:href="#DejaVuSans-2e" x="63.623047"/>
       <use xlink:href="#DejaVuSans-35" x="95.410156"/>
      </g>
     </g>
    </g>
    <g id="xtick_3">
     <g id="line2d_3">
      <g>
       <use xlink:href="#m5dd95bc949" x="182.050909" y="307.584" style="stroke: #000000; stroke-width: 0.8"/>
      </g>
     </g>
     <g id="text_3">
      <!-- 2.0 -->
      <g transform="translate(174.099347 322.182437) scale(0.1 -0.1)">
       <defs>
        <path id="DejaVuSans-32" d="M 1228 531
L 3431 531
L 3431 0
L 469 0
L 469 531
Q 828 903 1448 1529
Q 2069 2156 2228 2338
Q 2531 2678 2651 2914
Q 2772 3150 2772 3378
Q 2772 3750 2511 3984
Q 2250 4219 1831 4219
Q 1534 4219 1204 4116
Q 875 4013 500 3803
L 500 4441
Q 881 4594 1212 4672
Q 1544 4750 1819 4750
Q 2544 4750 2975 4387
Q 3406 4025 3406 3419
Q 3406 3131 3298 2873
Q 3191 2616 2906 2266
Q 2828 2175 2409 1742
Q 1991 1309 1228 531
z
" transform="scale(0.015625)"/>
       </defs>
       <use xlink:href="#DejaVuSans-32"/>
       <use xlink:href="#DejaVuSans-2e" x="63.623047"/>
       <use xlink:href="#DejaVuSans-30" x="95.410156"/>
      </g>
     </g>
    </g>
    <g id="xtick_4">
     <g id="line2d_4">
      <g>
       <use xlink:href="#m5dd95bc949" x="236.16" y="307.584" style="stroke: #000000; stroke-width: 0.8"/>
      </g>
     </g>
     <g id="text_4">
      <!-- 2.5 -->
      <g transform="translate(228.208437 322.182437) scale(0.1 -0.1)">
       <use xlink:href="#DejaVuSans-32"/>
       <use xlink:href="#DejaVuSans-2e" x="63.623047"/>
       <use xlink:href="#DejaVuSans-35" x="95.410156"/>
      </g>
     </g>
    </g>
    <g id="xtick_5">
     <g id="line2d_5">
      <g>
       <use xlink:href="#m5dd95bc949" x="290.269091" y="307.584" style="stroke: #000000; stroke-width: 0.8"/>
      </g>
     </g>
     <g id="text_5">
      <!-- 3.0 -->
      <g transform="translate(282.317528 322.182437) scale(0.1 -0.1)">
       <defs>
        <path id="DejaVuSans-33" d="M 2597 2516
Q 3050 2419 3304 2112
Q 3559 1806 3559 1356
Q 3559 666 3084 287
Q 2609 -91 1734 -91
Q 1441 -91 1130 -33
Q 819 25 488 141
L 488 750
Q 750 597 1062 519
Q 1375 441 1716 441
Q 2309 441 2620 675
Q 2931 909 2931 1356
Q 2931 1769 2642 2001
Q 2353 2234 1838 2234
L 1294 2234
L 1294 2753
L 1863 2753
Q 2328 2753 2575 2939
Q 2822 3125 2822 3475
Q 2822 3834 2567 4026
Q 2313 4219 1838 4219
Q 1578 4219 1281 4162
Q 984 4106 628 3988
L 628 4550
Q 988 4650 1302 4700
Q 1616 4750 1894 4750
Q 2613 4750 3031 4423
Q 3450 4097 3450 3541
Q 3450 3153 3228 2886
Q 3006 2619 2597 2516
z
" transform="scale(0.015625)"/>
       </defs>
       <use xlink:href="#DejaVuSans-33"/>
       <use xlink:href="#DejaVuSans-2e" x="63.623047"/>
       <use xlink:href="#DejaVuSans-30" x="95.410156"/>
      </g>
     </g>
    </g>
    <g id="xtick_6">
     <g id="line2d_6">
      <g>
       <use xlink:href="#m5dd95bc949" x="344.378182" y="307.584" style="stroke: #000000; stroke-width: 0.8"/>
      </g>
     </g>
     <g id="text_6">
      <!-- 3.5 -->
      <g transform="translate(336.426619 322.182437) scale(0.1 -0.1)">
       <use xlink:href="#DejaVuSans-33"/>
       <use xlink:href="#DejaVuSans-2e" x="63.623047"/>
       <use xlink:href="#DejaVuSans-35" x="95.410156"/>
      </g>
     </g>
    </g>
    <g id="xtick_7">
     <g id="line2d_7">
      <g>
       <use xlink:href="#m5dd95bc949" x="398.487273" y="307.584" style="stroke: #000000; stroke-width: 0.8"/>
      </g>
     </g>
     <g id="text_7">
      <!-- 4.0 -->
      <g transform="translate(390.53571 322.182437) scale(0.1 -0.1)">
       <defs>
        <path id="DejaVuSans-34" d="M 2419 4116
L 825 1625
L 2419 1625
L 2419 4116
z
M 2253 4666
L 3047 4666
L 3047 1625
L 3713 1625
L 3713 1100
L 3047 1100
L 3047 0
L 2419 0
L 2419 1100
L 313 1100
L 313 1709
L 2253 4666
z
" transform="scale(0.015625)"/>
       </defs>
       <use xlink:href="#DejaVuSans-34"/>
       <use xlink:href="#DejaVuSans-2e" x="63.623047"/>
       <use xlink:href="#DejaVuSans-30" x="95.410156"/>
      </g>
     </g>
    </g>
    <g id="text_8">
     <!-- my_x -->
     <g transform="translate(222.870937 335.582437) scale(0.1 -0.1)">
      <defs>
       <path id="DejaVuSans-6d" d="M 3328 2828
Q 3544 3216 3844 3400
Q 4144 3584 4550 3584
Q 5097 3584 5394 3201
Q 5691 2819 5691 2113
L 5691 0
L 5113 0
L 5113 2094
Q 5113 2597 4934 2840
Q 4756 3084 4391 3084
Q 3944 3084 3684 2787
Q 3425 2491 3425 1978
L 3425 0
L 2847 0
L 2847 2094
Q 2847 2600 2669 2842
Q 2491 3084 2119 3084
Q 1678 3084 1418 2786
Q 1159 2488 1159 1978
L 1159 0
L 581 0
L 581 3500
L 1159 3500
L 1159 2956
Q 1356 3278 1631 3431
Q 1906 3584 2284 3584
Q 2666 3584 2933 3390
Q 3200 3197 3328 2828
z
" transform="scale(0.015625)"/>
       <path id="DejaVuSans-79" d="M 2059 -325
Q 1816 -950 1584 -1140
Q 1353 -1331 966 -1331
L 506 -1331
L 506 -850
L 844 -850
Q 1081 -850 1212 -737
Q 1344 -625 1503 -206
L 1606 56
L 191 3500
L 800 3500
L 1894 763
L 2988 3500
L 3597 3500
L 2059 -325
z
" transform="scale(0.015625)"/>
       <path id="DejaVuSans-5f" d="M 3263 -1063
L 3263 -1509
L -63 -1509
L -63 -1063
L 3263 -1063
z
" transform="scale(0.015625)"/>
       <path id="DejaVuSans-78" d="M 3513 3500
L 2247 1797
L 3578 0
L 2900 0
L 1881 1375
L 863 0
L 184 0
L 1544 1831
L 300 3500
L 978 3500
L 1906 2253
L 2834 3500
L 3513 3500
z
" transform="scale(0.015625)"/>
      </defs>
      <use xlink:href="#DejaVuSans-6d"/>
      <use xlink:href="#DejaVuSans-79" x="97.412109"/>
      <use xlink:href="#DejaVuSans-5f" x="156.591797"/>
      <use xlink:href="#DejaVuSans-78" x="206.591797"/>
     </g>
    </g>
   </g>
   <g id="matplotlib.axis_2">
    <g id="ytick_1">
     <g id="line2d_8">
      <defs>
       <path id="m3e5aefc80a" d="M 0 0
L -3.5 0
" style="stroke: #000000; stroke-width: 0.8"/>
      </defs>
      <g>
       <use xlink:href="#m3e5aefc80a" x="57.6" y="295.488" style="stroke: #000000; stroke-width: 0.8"/>
      </g>
     </g>
     <g id="text_9">
      <!-- 0 -->
      <g transform="translate(44.2375 299.287219) scale(0.1 -0.1)">
       <use xlink:href="#DejaVuSans-30"/>
      </g>
     </g>
    </g>
    <g id="ytick_2">
     <g id="line2d_9">
      <g>
       <use xlink:href="#m3e5aefc80a" x="57.6" y="247.104" style="stroke: #000000; stroke-width: 0.8"/>
      </g>
     </g>
     <g id="text_10">
      <!-- 1 -->
      <g transform="translate(44.2375 250.903219) scale(0.1 -0.1)">
       <use xlink:href="#DejaVuSans-31"/>
      </g>
     </g>
    </g>
    <g id="ytick_3">
     <g id="line2d_10">
      <g>
       <use xlink:href="#m3e5aefc80a" x="57.6" y="198.72" style="stroke: #000000; stroke-width: 0.8"/>
      </g>
     </g>
     <g id="text_11">
      <!-- 2 -->
      <g transform="translate(44.2375 202.519219) scale(0.1 -0.1)">
       <use xlink:href="#DejaVuSans-32"/>
      </g>
     </g>
    </g>
    <g id="ytick_4">
     <g id="line2d_11">
      <g>
       <use xlink:href="#m3e5aefc80a" x="57.6" y="150.336" style="stroke: #000000; stroke-width: 0.8"/>
      </g>
     </g>
     <g id="text_12">
      <!-- 3 -->
      <g transform="translate(44.2375 154.135219) scale(0.1 -0.1)">
       <use xlink:href="#DejaVuSans-33"/>
      </g>
     </g>
    </g>
    <g id="ytick_5">
     <g id="line2d_12">
      <g>
       <use xlink:href="#m3e5aefc80a" x="57.6" y="101.952" style="stroke: #000000; stroke-width: 0.8"/>
      </g>
     </g>
     <g id="text_13">
      <!-- 4 -->
      <g transform="translate(44.2375 105.751219) scale(0.1 -0.1)">
       <use xlink:href="#DejaVuSans-34"/>
      </g>
     </g>
    </g>
    <g id="ytick_6">
     <g id="line2d_13">
      <g>
       <use xlink:href="#m3e5aefc80a" x="57.6" y="53.568" style="stroke: #000000; stroke-width: 0.8"/>
      </g>
     </g>
     <g id="text_14">
      <!-- 5 -->
      <g transform="translate(44.2375 57.367219) scale(0.1 -0.1)">
       <use xlink:href="#DejaVuSans-35"/>
      </g>
     </g>
    </g>
    <g id="text_15">
     <!-- my_y -->
     <g transform="translate(37.879687 187.817062) rotate(-90) scale(0.1 -0.1)">
      <use xlink:href="#DejaVuSans-6d"/>
      <use xlink:href="#DejaVuSans-79" x="97.412109"/>
      <use xlink:href="#DejaVuSans-5f" x="156.591797"/>
      <use xlink:href="#DejaVuSans-79" x="206.591797"/>
     </g>
    </g>
   </g>
   <g id="patch_3">
    <path d="M 57.6 307.584
L 57.6 41.472
" style="fill: none; stroke: #000000; stroke-width: 0.8; stroke-linejoin: miter; stroke-linecap: square"/>
   </g>
   <g id="patch_4">
    <path d="M 414.72 307.584
L 414.72 41.472
" style="fill: none; stroke: #000000; stroke-width: 0.8; stroke-linejoin: miter; stroke-linecap: square"/>
   </g>
   <g id="patch_5">
    <path d="M 57.6 307.584
L 414.72 307.584
" style="fill: none; stroke: #000000; stroke-width: 0.8; stroke-linejoin: miter; stroke-linecap: square"/>
   </g>
   <g id="patch_6">
    <path d="M 57.6 41.472
L 414.72 41.472
" style="fill: none; stroke: #000000; stroke-width: 0.8; stroke-linejoin: miter; stroke-linecap: square"/>
   </g>
   <g id="legend_1">
    <g id="patch_7">
     <path d="M 369.371563 78.82825
L 407.72 78.82825
Q 409.72 78.82825 409.72 76.82825
L 409.72 48.472
Q 409.72 46.472 407.72 46.472
L 369.371563 46.472
Q 367.371563 46.472 367.371563 48.472
L 367.371563 76.82825
Q 367.371563 78.82825 369.371563 78.82825
z
" style="fill: #ffffff; opacity: 0.8; stroke: #cccccc; stroke-linejoin: miter"/>
    </g>
    <g id="patch_8">
     <path d="M 371.371563 58.070437
L 391.371563 58.070437
L 391.371563 51.070437
L 371.371563 51.070437
z
" style="fill: #0173b2; stroke: #0173b2; stroke-linejoin: miter"/>
    </g>
    <g id="text_16">
     <!-- a -->
     <g transform="translate(399.371563 58.070437) scale(0.1 -0.1)">
      <defs>
       <path id="DejaVuSans-61" d="M 2194 1759
Q 1497 1759 1228 1600
Q 959 1441 959 1056
Q 959 750 1161 570
Q 1363 391 1709 391
Q 2188 391 2477 730
Q 2766 1069 2766 1631
L 2766 1759
L 2194 1759
z
M 3341 1997
L 3341 0
L 2766 0
L 2766 531
Q 2569 213 2275 61
Q 1981 -91 1556 -91
Q 1019 -91 701 211
Q 384 513 384 1019
Q 384 1609 779 1909
Q 1175 2209 1959 2209
L 2766 2209
L 2766 2266
Q 2766 2663 2505 2880
Q 2244 3097 1772 3097
Q 1472 3097 1187 3025
Q 903 2953 641 2809
L 641 3341
Q 956 3463 1253 3523
Q 1550 3584 1831 3584
Q 2591 3584 2966 3190
Q 3341 2797 3341 1997
z
" transform="scale(0.015625)"/>
      </defs>
      <use xlink:href="#DejaVuSans-61"/>
     </g>
    </g>
    <g id="patch_9">
     <path d="M 371.371563 72.748562
L 391.371563 72.748562
L 391.371563 65.748562
L 371.371563 65.748562
z
" style="fill: #de8f05; stroke: #de8f05; stroke-linejoin: miter"/>
    </g>
    <g id="text_17">
     <!-- b -->
     <g transform="translate(399.371563 72.748562) scale(0.1 -0.1)">
      <defs>
       <path id="DejaVuSans-62" d="M 3116 1747
Q 3116 2381 2855 2742
Q 2594 3103 2138 3103
Q 1681 3103 1420 2742
Q 1159 2381 1159 1747
Q 1159 1113 1420 752
Q 1681 391 2138 391
Q 2594 391 2855 752
Q 3116 1113 3116 1747
z
M 1159 2969
Q 1341 3281 1617 3432
Q 1894 3584 2278 3584
Q 2916 3584 3314 3078
Q 3713 2572 3713 1747
Q 3713 922 3314 415
Q 2916 -91 2278 -91
Q 1894 -91 1617 61
Q 1341 213 1159 525
L 1159 0
L 581 0
L 581 4863
L 1159 4863
L 1159 2969
z
" transform="scale(0.015625)"/>
      </defs>
      <use xlink:href="#DejaVuSans-62"/>
     </g>
    </g>
   </g>
  </g>
 </g>
 <defs>
  <clipPath id="p048a952150">
   <rect x="57.6" y="41.472" width="357.12" height="266.112"/>
  </clipPath>
 </defs>
</svg>
