<svg class="main-svg" xmlns="http://www.w3.org/2000/svg" xmlns:xlink="http://www.w3.org/1999/xlink" width="700" height="500" style="" viewBox="0 0 700 500"><rect x="0" y="0" width="700" height="500" style="fill: rgb(255, 255, 255); fill-opacity: 1;"/><defs id="defs-f13979"><g class="clips"><clipPath id="clipf13979xyplot" class="plotclip"><rect width="519" height="320"/></clipPath><clipPath class="axesclip" id="clipf13979x"><rect x="80" y="0" width="519" height="500"/></clipPath><clipPath class="axesclip" id="clipf13979y"><rect x="0" y="100" width="700" height="320"/></clipPath><clipPath class="axesclip" id="clipf13979xy"><rect x="80" y="100" width="519" height="320"/></clipPath></g><g class="gradients"/><g class="patterns"/></defs><g class="bglayer"><rect class="bg" x="80" y="100" width="519" height="320" style="fill: rgb(229, 236, 246); fill-opacity: 1; stroke-width: 0;"/></g><g class="layer-below"><g class="imagelayer"/><g class="shapelayer"/></g><g class="cartesianlayer"><g class="subplot xy"><g class="layer-subplot"><g class="shapelayer"/><g class="imagelayer"/></g><g class="minor-gridlayer"><g class="x"/><g class="y"/></g><g class="gridlayer"><g class="x"><path class="xgrid crisp" transform="translate(339.5,0)" d="M0,100v320" style="stroke: rgb(255, 255, 255); stroke-opacity: 1; stroke-width: 1px;"/></g><g class="y"><path class="ygrid crisp" transform="translate(0,404)" d="M80,0h519" style="stroke: rgb(255, 255, 255); stroke-opacity: 1; stroke-width: 1px;"/><path class="ygrid crisp" transform="translate(0,368)" d="M80,0h519" style="stroke: rgb(255, 255, 255); stroke-opacity: 1; stroke-width: 1px;"/><path class="ygrid crisp" transform="translate(0,332)" d="M80,0h519" style="stroke: rgb(255, 255, 255); stroke-opacity: 1; stroke-width: 1px;"/><path class="ygrid crisp" transform="translate(0,296)" d="M80,0h519" style="stroke: rgb(255, 255, 255); stroke-opacity: 1; stroke-width: 1px;"/><path class="ygrid crisp" transform="translate(0,224)" d="M80,0h519" style="stroke: rgb(255, 255, 255); stroke-opacity: 1; stroke-width: 1px;"/><path class="ygrid crisp" transform="translate(0,188)" d="M80,0h519" style="stroke: rgb(255, 255, 255); stroke-opacity: 1; stroke-width: 1px;"/><path class="ygrid crisp" transform="translate(0,152)" d="M80,0h519" style="stroke: rgb(255, 255, 255); stroke-opacity: 1; stroke-width: 1px;"/><path class="ygrid crisp" transform="translate(0,116)" d="M80,0h519" style="stroke: rgb(255, 255, 255); stroke-opacity: 1; stroke-width: 1px;"/></g></g><g class="zerolinelayer"><path class="xzl zl crisp" transform="translate(80,0)" d="M0,100v320" style="stroke: rgb(255, 255, 255); stroke-opacity: 1; stroke-width: 2px;"/><path class="yzl zl crisp" transform="translate(0,260)" d="M80,0h519" style="stroke: rgb(255, 255, 255); stroke-opacity: 1; stroke-width: 2px;"/></g><path class="xlines-below"/><path class="ylines-below"/><g class="overlines-below"/><g class="xaxislayer-below"/><g class="yaxislayer-below"/><g class="overaxes-below"/><g class="plot" transform="translate(80,100)" clip-path="url(#clipf13979xyplot)"><g class="scatterlayer mlayer"><g class="trace scatter tracef43725" style="stroke-miterlimit: 2; opacity: 1;"><g class="fills"><g><path class="js-fill" d="M0,232L45.72,220.43L46.24,220.31L99.23,209.73L99.75,209.64L135.08,204.28L135.59,204.21L170.92,200.19L171.44,200.15L206.77,197.49L207.29,197.46L243.14,196.14L243.65,196.13L296.65,196.74L297.17,196.76L333.53,198.93L334.05,198.97L368.86,202.39L369.38,202.45L422.89,210.27L423.41,210.36L458.74,217.22L459.26,217.33L498.74,226.6L499.26,226.73L519,232L519,304L473.28,292.43L472.76,292.31L419.77,281.73L419.25,281.64L383.92,276.28L383.41,276.21L348.08,272.19L347.56,272.15L312.23,269.49L311.71,269.46L275.86,268.14L275.35,268.13L222.35,268.74L221.83,268.76L185.47,270.93L184.95,270.97L150.14,274.39L149.62,274.45L96.11,282.27L95.59,282.36L60.26,289.22L59.74,289.33L20.26,298.6L19.74,298.73L0,304Z" style="fill: rgb(166, 206, 227); fill-opacity: 1; stroke-width: 0;"/></g></g><g class="errorbars"/><g class="lines"><path class="js-line" d="M0,232L45.72,220.43L46.24,220.31L99.23,209.73L99.75,209.64L135.08,204.28L135.59,204.21L170.92,200.19L171.44,200.15L206.77,197.49L207.29,197.46L243.14,196.14L243.65,196.13L296.65,196.74L297.17,196.76L333.53,198.93L334.05,198.97L368.86,202.39L369.38,202.45L422.89,210.27L423.41,210.36L458.74,217.22L459.26,217.33L498.74,226.6L499.26,226.73L519,232L519,304L473.28,292.43L472.76,292.31L419.77,281.73L419.25,281.64L383.92,276.28L383.41,276.21L348.08,272.19L347.56,272.15L312.23,269.49L311.71,269.46L275.86,268.14L275.35,268.13L222.35,268.74L221.83,268.76L185.47,270.93L184.95,270.97L150.14,274.39L149.62,274.45L96.11,282.27L95.59,282.36L60.26,289.22L59.74,289.33L20.26,298.6L19.74,298.73L0,304" style="vector-effect: none; fill: none; stroke: rgb(166, 206, 227); stroke-opacity: 1; stroke-width: 2px; opacity: 1;"/></g><g class="points"/><g class="text"/></g><g class="trace scatter trace37738f" style="stroke-miterlimit: 2; opacity: 1;"><g class="fills"><g><path class="js-fill" d="M0,16L45.72,27.57L46.24,27.69L99.23,38.27L99.75,38.36L135.08,43.72L135.59,43.79L170.92,47.81L171.44,47.85L206.77,50.51L207.29,50.54L243.14,51.86L243.65,51.87L296.65,51.26L297.17,51.24L333.53,49.07L334.05,49.03L368.86,45.61L369.38,45.55L422.89,37.73L423.41,37.64L458.74,30.78L459.26,30.67L498.74,21.4L499.26,21.27L519,16L519,232L473.28,220.43L472.76,220.31L419.77,209.73L419.25,209.64L383.92,204.28L383.41,204.21L348.08,200.19L347.56,200.15L312.23,197.49L311.71,197.46L275.86,196.14L275.35,196.13L222.35,196.74L221.83,196.76L185.47,198.93L184.95,198.97L150.14,202.39L149.62,202.45L96.11,210.27L95.59,210.36L60.26,217.22L59.74,217.33L20.26,226.6L19.74,226.73L0,232Z" style="fill: rgb(31, 120, 180); fill-opacity: 1; stroke-width: 0;"/></g></g><g class="errorbars"/><g class="lines"><path class="js-line" d="M0,16L45.72,27.57L46.24,27.69L99.23,38.27L99.75,38.36L135.08,43.72L135.59,43.79L170.92,47.81L171.44,47.85L206.77,50.51L207.29,50.54L243.14,51.86L243.65,51.87L296.65,51.26L297.17,51.24L333.53,49.07L334.05,49.03L368.86,45.61L369.38,45.55L422.89,37.73L423.41,37.64L458.74,30.78L459.26,30.67L498.74,21.4L499.26,21.27L519,16L519,232L473.28,220.43L472.76,220.31L419.77,209.73L419.25,209.64L383.92,204.28L383.41,204.21L348.08,200.19L347.56,200.15L312.23,197.49L311.71,197.46L275.86,196.14L275.35,196.13L222.35,196.74L221.83,196.76L185.47,198.93L184.95,198.97L150.14,202.39L149.62,202.45L96.11,210.27L95.59,210.36L60.26,217.22L59.74,217.33L20.26,226.6L19.74,226.73L0,232" style="vector-effect: none; fill: none; stroke: rgb(31, 120, 180); stroke-opacity: 1; stroke-width: 2px; opacity: 1;"/></g><g class="points"/><g class="text"/></g></g></g><g class="overplot"/><path class="xlines-above crisp" d="M0,0" style="fill: none;"/><path class="ylines-above crisp" d="M0,0" style="fill: none;"/><g class="overlines-above"/><g class="xaxislayer-above"><g class="xtick"><text text-anchor="middle" x="0" y="433" transform="translate(80,0)" style="font-family: 'Open Sans', verdana, arial, sans-serif; font-size: 12px; fill: rgb(42, 63, 95); fill-opacity: 1; white-space: pre; opacity: 1;">2022-01-01</text></g><g class="xtick"><text text-anchor="middle" x="0" y="433" style="font-family: 'Open Sans', verdana, arial, sans-serif; font-size: 12px; fill: rgb(42, 63, 95); fill-opacity: 1; white-space: pre; opacity: 1;" transform="translate(339.5,0)">2022-01-02</text></g><g class="xtick"><text text-anchor="middle" x="0" y="433" style="font-family: 'Open Sans', verdana, arial, sans-serif; font-size: 12px; fill: rgb(42, 63, 95); fill-opacity: 1; white-space: pre; opacity: 1;" transform="translate(599,0)">2022-01-03</text></g></g><g class="yaxislayer-above"/><g class="overaxes-above"/></g></g><g class="polarlayer"/><g class="smithlayer"/><g class="ternarylayer"/><g class="geolayer"/><g class="funnelarealayer"/><g class="pielayer"/><g class="iciclelayer"/><g class="treemaplayer"/><g class="sunburstlayer"/><g class="glimages"/><defs id="topdefs-f13979"><g class="clips"/><clipPath id="legendf13979"><rect width="79" height="48" x="0" y="0"/></clipPath></defs><g class="layer-above"><g class="imagelayer"/><g class="shapelayer"/></g><g class="infolayer"><g class="legend" pointer-events="all" transform="translate(609.38,100)"><rect class="bg" shape-rendering="crispEdges" style="stroke: rgb(68, 68, 68); stroke-opacity: 1; fill: rgb(255, 255, 255); fill-opacity: 1; stroke-width: 0px;" width="79" height="48" x="0" y="0"/><g class="scrollbox" transform="" clip-path="url(#legendf13979)"><g class="groups"><g class="traces" transform="translate(0,14.5)" style="opacity: 1;"><text class="legendtext" text-anchor="start" x="40" y="4.680000000000001" style="font-family: 'Open Sans', verdana, arial, sans-serif; font-size: 12px; fill: rgb(42, 63, 95); fill-opacity: 1; white-space: pre;">lab_1</text><g class="layers" style="opacity: 1;"><g class="legendfill"><path class="js-fill" d="M5,-2h30v6h-30z" style="stroke-width: 0; fill: rgb(166, 206, 227); fill-opacity: 1;"/></g><g class="legendlines"><path class="js-line" d="M5,-2h30" style="fill: none; stroke: rgb(166, 206, 227); stroke-opacity: 1; stroke-width: 2px;"/></g><g class="legendsymbols"><g class="legendpoints"/></g></g><rect class="legendtoggle" x="0" y="-9.5" width="73.234375" height="19" style="fill: rgb(0, 0, 0); fill-opacity: 0;"/></g><g class="traces" transform="translate(0,33.5)" style="opacity: 1;"><text class="legendtext" text-anchor="start" x="40" y="4.680000000000001" style="font-family: 'Open Sans', verdana, arial, sans-serif; font-size: 12px; fill: rgb(42, 63, 95); fill-opacity: 1; white-space: pre;">lab_2</text><g class="layers" style="opacity: 1;"><g class="legendfill"><path class="js-fill" d="M5,-2h30v6h-30z" style="stroke-width: 0; fill: rgb(31, 120, 180); fill-opacity: 1;"/></g><g class="legendlines"><path class="js-line" d="M5,-2h30" style="fill: none; stroke: rgb(31, 120, 180); stroke-opacity: 1; stroke-width: 2px;"/></g><g class="legendsymbols"><g class="legendpoints"/></g></g><rect class="legendtoggle" x="0" y="-9.5" width="73.234375" height="19" style="fill: rgb(0, 0, 0); fill-opacity: 0;"/></g></g></g><rect class="scrollbar" rx="20" ry="3" width="0" height="0" style="fill: rgb(128, 139, 164); fill-opacity: 1;" x="0" y="0"/></g><g class="g-gtitle"/><g class="g-xtitle"/><g class="g-ytitle"/></g></svg>