<svg class="main-svg" xmlns="http://www.w3.org/2000/svg" xmlns:xlink="http://www.w3.org/1999/xlink" width="700" height="500" style="" viewBox="0 0 700 500"><rect x="0" y="0" width="700" height="500" style="fill: rgb(255, 255, 255); fill-opacity: 1;"/><defs id="defs-422783"><g class="clips"><clipPath id="clip422783xyplot" class="plotclip"><rect width="519" height="320"/></clipPath><clipPath class="axesclip" id="clip422783x"><rect x="80" y="0" width="519" height="500"/></clipPath><clipPath class="axesclip" id="clip422783y"><rect x="0" y="100" width="700" height="320"/></clipPath><clipPath class="axesclip" id="clip422783xy"><rect x="80" y="100" width="519" height="320"/></clipPath></g><g class="gradients"/><g class="patterns"/></defs><g class="bglayer"><rect class="bg" x="80" y="100" width="519" height="320" style="fill: rgb(229, 236, 246); fill-opacity: 1; stroke-width: 0;"/></g><g class="layer-below"><g class="imagelayer"/><g class="shapelayer"/></g><g class="cartesianlayer"><g class="subplot xy"><g class="layer-subplot"><g class="shapelayer"/><g class="imagelayer"/></g><g class="minor-gridlayer"><g class="x"/><g class="y"/></g><g class="gridlayer"><g class="x"><path class="xgrid crisp" transform="translate(339.5,0)" d="M0,100v320" style="stroke: rgb(255, 255, 255); stroke-opacity: 1; stroke-width: 1px;"/></g><g class="y"><path class="ygrid crisp" transform="translate(0,404)" d="M80,0h519" style="stroke: rgb(255, 255, 255); stroke-opacity: 1; stroke-width: 1px;"/><path class="ygrid crisp" transform="translate(0,368)" d="M80,0h519" style="stroke: rgb(255, 255, 255); stroke-opacity: 1; stroke-width: 1px;"/><path class="ygrid crisp" transform="translate(0,332)" d="M80,0h519" style="stroke: rgb(255, 255, 255); stroke-opacity: 1; stroke-width: 1px;"/><path class="ygrid crisp" transform="translate(0,296)" d="M80,0h519" style="stroke: rgb(255, 255, 255); stroke-opacity: 1; stroke-width: 1px;"/><path class="ygrid crisp" transform="translate(0,224)" d="M80,0h519" style="stroke: rgb(255, 255, 255); stroke-opacity: 1; stroke-width: 1px;"/><path class="ygrid crisp" transform="translate(0,188)" d="M80,0h519" style="stroke: rgb(255, 255, 255); stroke-opacity: 1; stroke-width: 1px;"/><path class="ygrid crisp" transform="translate(0,152)" d="M80,0h519" style="stroke: rgb(255, 255, 255); stroke-opacity: 1; stroke-width: 1px;"/><path class="ygrid crisp" transform="translate(0,116)" d="M80,0h519" style="stroke: rgb(255, 255, 255); stroke-opacity: 1; stroke-width: 1px;"/></g></g><g class="zerolinelayer"><path class="xzl zl crisp" transform="translate(80,0)" d="M0,100v320" style="stroke: rgb(255, 255, 255); stroke-opacity: 1; stroke-width: 2px;"/><path class="yzl zl crisp" transform="translate(0,260)" d="M80,0h519" style="stroke: rgb(255, 255, 255); stroke-opacity: 1; stroke-width: 2px;"/></g><path class="xlines-below"/><path class="ylines-below"/><g class="overlines-below"/><g class="xaxislayer-below"/><g class="yaxislayer-below"/><g class="overaxes-below"/><g class="plot" transform="translate(80,100)" clip-path="url(#clip422783xyplot)"><g class="scatterlayer mlayer"><g class="trace scatter trace03fa18" style="stroke-miterlimit: 2; opacity: 1;"><g class="fills"><g><path class="js-fill" d="M0,232L63.58,216.52L63.64,216.51L110.09,207.93L110.14,207.93L130.02,204.96L130.07,204.96L143.67,203.17L143.73,203.17L173.31,199.97L173.36,199.97L191.11,198.5L191.17,198.5L202.59,197.73L202.64,197.73L234.97,196.32L235.03,196.32L297.05,196.75L297.11,196.76L312.73,197.51L312.78,197.52L355.24,200.9L355.29,200.91L370.86,202.63L370.91,202.64L382.9,204.14L382.96,204.15L421.68,210.06L421.73,210.07L472.54,220.26L472.6,220.28L492.58,225.04L492.63,225.06L503.95,227.94L504,227.96L519,232L519,304L455.42,288.52L455.36,288.51L408.91,279.93L408.86,279.93L388.98,276.96L388.93,276.96L375.33,275.17L375.27,275.17L345.69,271.97L345.64,271.97L327.89,270.5L327.83,270.5L316.41,269.73L316.36,269.73L284.03,268.32L283.97,268.32L221.95,268.75L221.89,268.76L206.27,269.51L206.22,269.52L163.76,272.9L163.71,272.91L148.14,274.63L148.09,274.64L136.1,276.14L136.04,276.15L97.32,282.06L97.27,282.07L46.46,292.26L46.4,292.28L26.42,297.04L26.37,297.06L15.05,299.94L15,299.96L0,304Z" style="fill: rgb(166, 206, 227); fill-opacity: 1; stroke-width: 0;"/></g></g><g class="errorbars"/><g class="lines"><path class="js-line" d="M0,232L63.58,216.52L63.64,216.51L110.09,207.93L110.14,207.93L130.02,204.96L130.07,204.96L143.67,203.17L143.73,203.17L173.31,199.97L173.36,199.97L191.11,198.5L191.17,198.5L202.59,197.73L202.64,197.73L234.97,196.32L235.03,196.32L297.05,196.75L297.11,196.76L312.73,197.51L312.78,197.52L355.24,200.9L355.29,200.91L370.86,202.63L370.91,202.64L382.9,204.14L382.96,204.15L421.68,210.06L421.73,210.07L472.54,220.26L472.6,220.28L492.58,225.04L492.63,225.06L503.95,227.94L504,227.96L519,232L519,304L455.42,288.52L455.36,288.51L408.91,279.93L408.86,279.93L388.98,276.96L388.93,276.96L375.33,275.17L375.27,275.17L345.69,271.97L345.64,271.97L327.89,270.5L327.83,270.5L316.41,269.73L316.36,269.73L284.03,268.32L283.97,268.32L221.95,268.75L221.89,268.76L206.27,269.51L206.22,269.52L163.76,272.9L163.71,272.91L148.14,274.63L148.09,274.64L136.1,276.14L136.04,276.15L97.32,282.06L97.27,282.07L46.46,292.26L46.4,292.28L26.42,297.04L26.37,297.06L15.05,299.94L15,299.96L0,304" style="vector-effect: none; fill: none; stroke: rgb(166, 206, 227); stroke-opacity: 1; stroke-width: 2px; opacity: 1;"/></g><g class="points"/><g class="text"/></g><g class="trace scatter trace62a56b" style="stroke-miterlimit: 2; opacity: 1;"><g class="fills"><g><path class="js-fill" d="M0,16L63.58,31.48L63.64,31.49L110.09,40.07L110.14,40.07L130.02,43.04L130.07,43.04L143.67,44.83L143.73,44.83L173.31,48.03L173.36,48.03L191.11,49.5L191.17,49.5L202.59,50.27L202.64,50.27L234.97,51.68L235.03,51.68L297.05,51.25L297.11,51.24L312.73,50.49L312.78,50.48L355.24,47.1L355.29,47.09L370.86,45.37L370.91,45.36L382.9,43.86L382.96,43.85L421.68,37.94L421.73,37.93L472.54,27.74L472.6,27.72L492.58,22.96L492.63,22.94L503.95,20.06L504,20.04L519,16L519,232L455.42,216.52L455.36,216.51L408.91,207.93L408.86,207.93L388.98,204.96L388.93,204.96L375.33,203.17L375.27,203.17L345.69,199.97L345.64,199.97L327.89,198.5L327.83,198.5L316.41,197.73L316.36,197.73L284.03,196.32L283.97,196.32L221.95,196.75L221.89,196.76L206.27,197.51L206.22,197.52L163.76,200.9L163.71,200.91L148.14,202.63L148.09,202.64L136.1,204.14L136.04,204.15L97.32,210.06L97.27,210.07L46.46,220.26L46.4,220.28L26.42,225.04L26.37,225.06L15.05,227.94L15,227.96L0,232Z" style="fill: rgb(31, 120, 180); fill-opacity: 1; stroke-width: 0;"/></g></g><g class="errorbars"/><g class="lines"><path class="js-line" d="M0,16L63.58,31.48L63.64,31.49L110.09,40.07L110.14,40.07L130.02,43.04L130.07,43.04L143.67,44.83L143.73,44.83L173.31,48.03L173.36,48.03L191.11,49.5L191.17,49.5L202.59,50.27L202.64,50.27L234.97,51.68L235.03,51.68L297.05,51.25L297.11,51.24L312.73,50.49L312.78,50.48L355.24,47.1L355.29,47.09L370.86,45.37L370.91,45.36L382.9,43.86L382.96,43.85L421.68,37.94L421.73,37.93L472.54,27.74L472.6,27.72L492.58,22.96L492.63,22.94L503.95,20.06L504,20.04L519,16L519,232L455.42,216.52L455.36,216.51L408.91,207.93L408.86,207.93L388.98,204.96L388.93,204.96L375.33,203.17L375.27,203.17L345.69,199.97L345.64,199.97L327.89,198.5L327.83,198.5L316.41,197.73L316.36,197.73L284.03,196.32L283.97,196.32L221.95,196.75L221.89,196.76L206.27,197.51L206.22,197.52L163.76,200.9L163.71,200.91L148.14,202.63L148.09,202.64L136.1,204.14L136.04,204.15L97.32,210.06L97.27,210.07L46.46,220.26L46.4,220.28L26.42,225.04L26.37,225.06L15.05,227.94L15,227.96L0,232" style="vector-effect: none; fill: none; stroke: rgb(31, 120, 180); stroke-opacity: 1; stroke-width: 2px; opacity: 1;"/></g><g class="points"/><g class="text"/></g></g></g><g class="overplot"/><path class="xlines-above crisp" d="M0,0" style="fill: none;"/><path class="ylines-above crisp" d="M0,0" style="fill: none;"/><g class="overlines-above"/><g class="xaxislayer-above"><g class="xtick"><text text-anchor="middle" x="0" y="433" transform="translate(80,0)" style="font-family: 'Open Sans', verdana, arial, sans-serif; font-size: 12px; fill: rgb(42, 63, 95); fill-opacity: 1; white-space: pre; opacity: 1;">2022-01-01</text></g><g class="xtick"><text text-anchor="middle" x="0" y="433" style="font-family: 'Open Sans', verdana, arial, sans-serif; font-size: 12px; fill: rgb(42, 63, 95); fill-opacity: 1; white-space: pre; opacity: 1;" transform="translate(339.5,0)">2022-01-02</text></g><g class="xtick"><text text-anchor="middle" x="0" y="433" style="font-family: 'Open Sans', verdana, arial, sans-serif; font-size: 12px; fill: rgb(42, 63, 95); fill-opacity: 1; white-space: pre; opacity: 1;" transform="translate(599,0)">2022-01-03</text></g></g><g class="yaxislayer-above"/><g class="overaxes-above"/></g></g><g class="polarlayer"/><g class="smithlayer"/><g class="ternarylayer"/><g class="geolayer"/><g class="funnelarealayer"/><g class="pielayer"/><g class="iciclelayer"/><g class="treemaplayer"/><g class="sunburstlayer"/><g class="glimages"/><defs id="topdefs-422783"><g class="clips"/><clipPath id="legend422783"><rect width="79" height="48" x="0" y="0"/></clipPath></defs><g class="layer-above"><g class="imagelayer"/><g class="shapelayer"/></g><g class="infolayer"><g class="legend" pointer-events="all" transform="translate(609.38,100)"><rect class="bg" shape-rendering="crispEdges" style="stroke: rgb(68, 68, 68); stroke-opacity: 1; fill: rgb(255, 255, 255); fill-opacity: 1; stroke-width: 0px;" width="79" height="48" x="0" y="0"/><g class="scrollbox" transform="" clip-path="url(#legend422783)"><g class="groups"><g class="traces" transform="translate(0,14.5)" style="opacity: 1;"><text class="legendtext" text-anchor="start" x="40" y="4.680000000000001" style="font-family: 'Open Sans', verdana, arial, sans-serif; font-size: 12px; fill: rgb(42, 63, 95); fill-opacity: 1; white-space: pre;">lab_1</text><g class="layers" style="opacity: 1;"><g class="legendfill"><path class="js-fill" d="M5,-2h30v6h-30z" style="stroke-width: 0; fill: rgb(166, 206, 227); fill-opacity: 1;"/></g><g class="legendlines"><path class="js-line" d="M5,-2h30" style="fill: none; stroke: rgb(166, 206, 227); stroke-opacity: 1; stroke-width: 2px;"/></g><g class="legendsymbols"><g class="legendpoints"/></g></g><rect class="legendtoggle" x="0" y="-9.5" width="73.234375" height="19" style="fill: rgb(0, 0, 0); fill-opacity: 0;"/></g><g class="traces" transform="translate(0,33.5)" style="opacity: 1;"><text class="legendtext" text-anchor="start" x="40" y="4.680000000000001" style="font-family: 'Open Sans', verdana, arial, sans-serif; font-size: 12px; fill: rgb(42, 63, 95); fill-opacity: 1; white-space: pre;">lab_2</text><g class="layers" style="opacity: 1;"><g class="legendfill"><path class="js-fill" d="M5,-2h30v6h-30z" style="stroke-width: 0; fill: rgb(31, 120, 180); fill-opacity: 1;"/></g><g class="legendlines"><path class="js-line" d="M5,-2h30" style="fill: none; stroke: rgb(31, 120, 180); stroke-opacity: 1; stroke-width: 2px;"/></g><g class="legendsymbols"><g class="legendpoints"/></g></g><rect class="legendtoggle" x="0" y="-9.5" width="73.234375" height="19" style="fill: rgb(0, 0, 0); fill-opacity: 0;"/></g></g></g><rect class="scrollbar" rx="20" ry="3" width="0" height="0" style="fill: rgb(128, 139, 164); fill-opacity: 1;" x="0" y="0"/></g><g class="g-gtitle"/><g class="g-xtitle"/><g class="g-ytitle"/></g></svg>